<svg viewBox="-10 -10 250 250" xmlns="http://www.w3.org/2000/svg">
<rect fill="none" stroke="green" x="0" y="0" width="240" height="120" />
<rect fill="none" stroke="green" x="0" y="120" width="240" height="120" />
<path fill="none" stroke="red" d="M 0,20 L 21.465583206652465,25.320280819221967 L 21.706155767723537,24.349649662262895 L 45.60597888985924,30.01223118407706 L 45.37542955321768,30.985291821126026 L 69.47469306062442,35.77520917929524 L 69.6696375784215,34.79439490789578 L 93.86338306239338,38.9137258534076 L 93.69551911954211,39.89953602615407 L 118.1710318853889,41.933797234979835 L 118.25386043019039,40.93723342258944 L 142.72095981381068,40.591399217421696 L 142.73490150645972,41.59130202730177 L 167.25728017522164,40.04269840411162 L 167.19425509383083,39.04468646073835 L 191.6428382197568,36.86156546953071 L 191.73176502643065,37.8576036329837 L 216.0762423863375,34.59066410293878 L 215.94323832412834,33.599548610457774 L 239.77244406267627,28.02623498964651 L 239.99999999999994,29.00000000000001 L 240,5 L 235.51499938964844,4.946312427520752 L 230.1199951171875,4.885499954223633 L 223.90499877929688,4.81793737411499 L 216.9600067138672,4.74399995803833 L 209.375,4.6640625 L 201.239990234375,4.578499794006348 L 192.64498901367188,4.487687587738037 L 183.6800079345703,4.392000198364258 L 174.43499755859375,4.291812419891357 L 165,4.1875 L 155.46499633789062,4.079437255859375 L 145.9199981689453,3.9679999351501465 L 136.4550018310547,3.853562355041504 L 127.15999603271484,3.7365000247955322 L 118.125,3.6171875 L 109.44000244140625,3.496000051498413 L 101.19499969482422,3.373312473297119 L 93.4800033569336,3.249500036239624 L 86.38500213623047,3.1249375343322754 L 80,3 L 74.0999984741211,2.86899995803833 L 68.4000015258789,2.7269999980926514 L 62.900001525878906,2.575500011444092 L 57.60000228881836,2.4160001277923584 L 52.5,2.25 L 47.599998474121094,2.0789999961853027 L 42.89999771118164,1.904499888420105 L 38.400001525878906,1.7280000448226929 L 34.10000228881836,1.5509999990463257 L 30,1.375 L 26.100000381469727,1.2014999389648438 L 22.399999618530273,1.031999945640564 L 18.899999618530273,0.8679999709129333 L 15.600000381469727,0.7110000252723694 L 12.5,0.5625 L 9.600000381469727,0.4240000247955322 L 6.900000095367432,0.296999990940094 L 4.400000095367432,0.18299999833106995 L 2.0999999046325684,0.08349999785423279 L 0,0  Z"/>
<g>
<circle fill="none" stroke="black" cx="3.1482955756108932" cy="17.6233351667803" r="0.3" />
<circle fill="none" stroke="black" cx="19.760722997468" cy="21.74075318064691" r="0.3" />
<circle fill="none" stroke="black" cx="48.4122987851076" cy="28.46400753640019" r="0.3" />
<circle fill="none" stroke="black" cx="67.60749093551702" cy="32.279202305583965" r="0.3" />
<circle fill="none" stroke="black" cx="96.43541428492254" cy="37.05071318596645" r="0.3" />
<circle fill="none" stroke="black" cx="115.92810798881739" cy="38.670831670784786" r="0.3" />
<circle fill="none" stroke="black" cx="145.04085612072046" cy="38.373500728684796" r="0.3" />
<circle fill="none" stroke="black" cx="164.57317507261607" cy="37.14002251244867" r="0.3" />
<circle fill="none" stroke="black" cx="193.81054157100573" cy="34.485544234997654" r="0.3" />
<circle fill="none" stroke="black" cx="213.19944146850756" cy="31.883625015998458" r="0.3" />
</g>
<path fill="none" stroke="red" d="M 240,96.93379723497983 L 240.110995602947,97.92761813238863 L 215.89204928754398,100.6319433923287 L 215.81500806111052,99.63491548427916 L 191.554160672644,101.50957257465016 L 191.5807959417566,102.50921779293478 L 167.23572659182545,103.157702791856 L 167.2281958835786,102.15773114804139 L 142.89298452228212,102.34099772166982 L 142.89028772716395,103.34099408531125 L 118.54344097760821,103.27527463481118 L 118.55716047388728,102.27536875152924 L 94.22361858167342,101.94149339082924 L 94.19203436726892,102.940994485076 L 69.82173032808626,102.16977876816601 L 69.90044531466059,101.17288160652465 L 45.64545641578779,99.25770800688088 L 45.50056335447347,100.24715532775397 L 21.396180611263222,96.71692650803664 L 21.569606432876583,95.73207957353478 L 0,91.93379723497983 L -0.17342582161335923,92.91864416948171 L 0.24057256107107175,67.90442839193891 L 21.706155767723537,62.584147572716944 L 21.465583206652465,61.61351641575787 L 45.37542955321768,55.94850541385381 L 45.60597888985924,56.921566050902776 L 69.6696375784215,52.139402327084056 L 69.47469306062442,51.158588055684596 L 93.69551911954211,47.03426120882577 L 93.86338306239338,48.02007138157224 L 118.25386043019039,45.99656381239039 L 118.1710318853889,45 L 142.73490150645972,45.34249520767806 L 142.72095981381068,46.34239801755814 L 167.19425509383083,47.88911077424149 L 167.25728017522164,46.891098830868216 L 191.73176502643065,49.07619360199614 L 191.6428382197568,50.072231765449125 L 215.94323832412834,53.33424862452206 L 216.0762423863375,52.343133132041054 L 239.99999999999994,57.93379723497982 L 239.77244406267627,58.907562245333324  Z"/>
<g>
<circle fill="none" stroke="black" cx="24.589882809199548" cy="63.95632498530087" r="0.3" />
<circle fill="none" stroke="black" cx="43.634425970519935" cy="59.4440606666046" r="0.3" />
<circle fill="none" stroke="black" cx="72.44281032104442" cy="53.69635871679582" r="0.3" />
<circle fill="none" stroke="black" cx="91.73458551622976" cy="50.411351584193355" r="0.3" />
<circle fill="none" stroke="black" cx="120.62896383214202" cy="48.03456266126281" r="0.3" />
<circle fill="none" stroke="black" cx="140.19331940381244" cy="48.30734940569573" r="0.3" />
<circle fill="none" stroke="black" cx="169.48059516383262" cy="50.10153033791174" r="0.3" />
<circle fill="none" stroke="black" cx="188.97488919777672" cy="51.84199107567053" r="0.3" />
<circle fill="none" stroke="black" cx="217.82798710025025" cy="55.83331800641071" r="0.3" />
<circle fill="none" stroke="black" cx="236.8829196621452" cy="60.28620242273116" r="0.3" />
<circle fill="none" stroke="black" cx="24.47790391900231" cy="94.53316711453267" r="0.3" />
<circle fill="none" stroke="black" cx="43.606517297547995" cy="97.33433024130719" r="0.3" />
<circle fill="none" stroke="black" cx="72.49395069349099" cy="99.66053571012709" r="0.3" />
<circle fill="none" stroke="black" cx="91.81961848927008" cy="100.27122642240914" r="0.3" />
<circle fill="none" stroke="black" cx="121.06524176834535" cy="100.68931849873177" r="0.3" />
<circle fill="none" stroke="black" cx="140.401083998533" cy="100.74146349328153" r="0.3" />
<circle fill="none" stroke="black" cx="169.6474031219523" cy="100.49940417073742" r="0.3" />
<circle fill="none" stroke="black" cx="188.97514181959463" cy="99.98442194290926" r="0.3" />
<circle fill="none" stroke="black" cx="217.96657349579144" cy="97.78316063501663" r="0.3" />
<circle fill="none" stroke="black" cx="237.18246094763694" cy="95.63702040045241" r="0.3" />
</g>
<path fill="none" stroke="red" d="M 240.110995602947,114.0061791025912 L 240,115 L 215.81500806111052,112.29888175070067 L 215.89204928754398,111.30185384265114 L 191.5807959417566,109.42457944204506 L 191.554160672644,110.42422466032967 L 167.2281958835786,109.77606608693846 L 167.23572659182545,108.77609444312384 L 142.89028772716395,108.59280314966858 L 142.89298452228212,109.59279951331003 L 118.55716047388728,109.65842848345059 L 118.54344097760821,108.65852260016864 L 94.19203436726892,108.99280274990384 L 94.22361858167342,109.99230384415058 L 69.90044531466059,110.76091562845518 L 69.82173032808626,109.76401846681382 L 45.50056335447347,111.68664190722585 L 45.64545641578779,112.67608922809896 L 21.569606432876583,116.20171766144506 L 21.396180611263222,115.2168707269432 L -0.17342582161335923,119.01515306549813 L 0,120 L 0.24057256107107175,144.0293688430409 L 21.706155767723537,149.3496496622629 L 21.465583206652465,150.32028081922198 L 45.37542955321768,155.98529182112603 L 45.60597888985924,155.01223118407705 L 69.6696375784215,159.79439490789576 L 69.47469306062442,160.77520917929525 L 93.69551911954211,164.89953602615407 L 93.86338306239338,163.91372585340758 L 118.25386043019039,165.93723342258943 L 118.1710318853889,166.93379723497983 L 142.73490150645972,166.59130202730177 L 142.72095981381068,165.5913992174217 L 167.19425509383083,164.04468646073835 L 167.25728017522164,165.0426984041116 L 191.73176502643065,162.85760363298368 L 191.6428382197568,161.86156546953072 L 215.94323832412834,158.59954861045776 L 216.0762423863375,159.59066410293877 L 239.99999999999994,154 L 239.77244406267627,153.02623498964653  Z"/>
<g>
<circle fill="none" stroke="black" cx="2.982394801094754" cy="121.1137793991408" r="0.3" />
<circle fill="none" stroke="black" cx="19.627766561461986" cy="118.18262616865266" r="0.3" />
<circle fill="none" stroke="black" cx="48.37384427961419" cy="114.06279639625579" r="0.3" />
<circle fill="none" stroke="black" cx="67.64434737028019" cy="112.54119772948368" r="0.3" />
<circle fill="none" stroke="black" cx="96.7645417787155" cy="111.55052590296734" r="0.3" />
<circle fill="none" stroke="black" cx="116.09855425451963" cy="111.28524802366269" r="0.3" />
<circle fill="none" stroke="black" cx="145.37032150707807" cy="111.20434436503959" r="0.3" />
<circle fill="none" stroke="black" cx="164.7056746493015" cy="111.34995739743374" r="0.3" />
<circle fill="none" stroke="black" cx="193.8156067634674" cy="112.20071460023054" r="0.3" />
<circle fill="none" stroke="black" cx="213.09131461168627" cy="113.69016555843416" r="0.3" />
<circle fill="none" stroke="black" cx="24.589882809199548" cy="147.9112694846588" r="0.3" />
<circle fill="none" stroke="black" cx="43.634425970519935" cy="152.42353380335507" r="0.3" />
<circle fill="none" stroke="black" cx="72.44281032104442" cy="158.17123575316384" r="0.3" />
<circle fill="none" stroke="black" cx="91.73458551622976" cy="161.4562428857663" r="0.3" />
<circle fill="none" stroke="black" cx="120.62896383214202" cy="163.83303180869686" r="0.3" />
<circle fill="none" stroke="black" cx="140.19331940381244" cy="163.56024506426394" r="0.3" />
<circle fill="none" stroke="black" cx="169.48059516383262" cy="161.76606413204792" r="0.3" />
<circle fill="none" stroke="black" cx="188.97488919777672" cy="160.02560339428913" r="0.3" />
<circle fill="none" stroke="black" cx="217.82798710025025" cy="156.03427646354896" r="0.3" />
<circle fill="none" stroke="black" cx="236.8829196621452" cy="151.58139204722852" r="0.3" />
</g>
<path fill="none" stroke="red" d="M 0,191.93379723497983 L 21.465583206652465,186.61351641575786 L 21.706155767723537,187.58414757271694 L 45.60597888985924,181.92156605090278 L 45.37542955321768,180.9485054138538 L 69.47469306062442,176.1585880556846 L 69.6696375784215,177.13940232708404 L 93.86338306239338,173.02007138157222 L 93.69551911954211,172.03426120882577 L 118.1710318853889,170 L 118.25386043019039,170.99656381239038 L 142.72095981381068,171.34239801755814 L 142.73490150645972,170.34249520767807 L 167.25728017522164,171.8910988308682 L 167.19425509383083,172.8891107742415 L 191.6428382197568,175.07223176544912 L 191.73176502643065,174.07619360199612 L 216.0762423863375,177.34313313204106 L 215.94323832412834,178.33424862452205 L 239.77244406267627,183.90756224533334 L 239.99999999999994,182.93379723497983 L 240,206.93379723497983 L 235.51499938964844,206.98748480745908 L 230.1199951171875,207.0482972807562 L 223.90499877929688,207.11585986086484 L 216.9600067138672,207.1897972769415 L 209.375,207.26973473497983 L 201.239990234375,207.3552974409735 L 192.64498901367188,207.4461096472418 L 183.6800079345703,207.54179703661558 L 174.43499755859375,207.64198481508848 L 165,207.74629723497983 L 155.46499633789062,207.85435997912046 L 145.9199981689453,207.9657972998297 L 136.4550018310547,208.08023487993833 L 127.15999603271484,208.1972972101843 L 118.125,208.31660973497983 L 109.44000244140625,208.43779718348142 L 101.19499969482422,208.56048476168272 L 93.4800033569336,208.6842971987402 L 86.38500213623047,208.80885970064756 L 80,208.93379723497983 L 74.0999984741211,209.0647972769415 L 68.4000015258789,209.20679723688718 L 62.900001525878906,209.35829722353574 L 57.60000228881836,209.51779710718748 L 52.5,209.68379723497983 L 47.599998474121094,209.85479723879453 L 42.89999771118164,210.02929734655973 L 38.400001525878906,210.20579719015714 L 34.10000228881836,210.3827972359335 L 30,210.55879723497983 L 26.100000381469727,210.732297296015 L 22.399999618530273,210.90179728933927 L 18.899999618530273,211.0657972640669 L 15.600000381469727,211.22279720970747 L 12.5,211.37129723497983 L 9.600000381469727,211.5097972101843 L 6.900000095367432,211.63679724403974 L 4.400000095367432,211.75079723664876 L 2.0999999046325684,211.8502972371256 L 0,211.93379723497983  Z"/>
<g>
<circle fill="none" stroke="black" cx="3.148295575610894" cy="194.24425930317938" r="0.3" />
<circle fill="none" stroke="black" cx="19.760722997468" cy="190.12684128931275" r="0.3" />
<circle fill="none" stroke="black" cx="48.4122987851076" cy="183.40358693355947" r="0.3" />
<circle fill="none" stroke="black" cx="67.60749093551702" cy="179.5883921643757" r="0.3" />
<circle fill="none" stroke="black" cx="96.43541428492254" cy="174.8168812839932" r="0.3" />
<circle fill="none" stroke="black" cx="115.92810798881739" cy="173.19676279917488" r="0.3" />
<circle fill="none" stroke="black" cx="145.04085612072046" cy="173.49409374127487" r="0.3" />
<circle fill="none" stroke="black" cx="164.57317507261607" cy="174.727571957511" r="0.3" />
<circle fill="none" stroke="black" cx="193.81054157100573" cy="177.382050234962" r="0.3" />
<circle fill="none" stroke="black" cx="213.19944146850756" cy="179.9839694539612" r="0.3" />
</g>
</svg>
