<svg viewBox="-10 -10 250 250" xmlns="http://www.w3.org/2000/svg">
<rect fill="none" stroke="green" x="0" y="0" width="240" height="120" />
<rect fill="none" stroke="green" x="0" y="120" width="240" height="120" />
<path fill="none" stroke="red" d="M 0,0 L 0,20 L 11.247210545347365,22.7732240746611 L 11.726010438257807,20.831381994946856 L 23.563078678950763,23.777574069821192 L 23.080024579253003,25.71836224393118 L 34.93200292969323,28.585133819505792 L 35.402206000685084,26.64119218662948 L 47.264298392108685,29.360460201072826 L 46.817387019210976,31.30988837999471 L 58.76223372167613,33.75915867945359 L 59.163971743144124,31.799922460385822 L 71.11554275568042,34.0499164013976 L 70.7454820463369,36.01538201325658 L 82.7413499204777,38.20303863000425 L 83.10016699990715,36.23548931588027 L 95.09674963152091,38.075306448286625 L 94.79344172447497,40.05217374619092 L 106.91778281052117,41.3410081081769 L 107.12919448000767,39.35221322031015 L 119.19692233667679,39.96985262237844 L 119.0942027374928,41.96721305153074 L 131.28655142888067,41.96157195944572 L 131.28562607944653,39.96157217351362 L 143.40788156212426,39.56346638170487 L 143.473356252364,41.562394360632084 L 155.64732963450655,40.8705298519341 L 155.53384985437685,38.87375186239653 L 167.66726552773247,38.00572287760184 L 167.8099464079924,40.000626927025834 L 179.96070937769164,38.978042330174745 L 179.79298617303954,36.98508750714909 L 191.9097568834189,35.83030513592864 L 192.0994860619659,37.82128550720503 L 204.21883420700576,36.48028323149373 L 203.99887721012576,34.49241529837455 L 215.94228955837562,32.58177331485876 L 216.2578417055445,34.556723147744925 L 228.16234923180068,31.922295028091128 L 227.73021077117562,29.96953893711391 L 239.52066107264645,27.058290909347246 L 239.99999999999994,29.000000000000014 L 240,0  Z"/>
<g>
<circle fill="none" stroke="black" cx="1.9443784037716698" cy="17.935606713898554" r="0.5" />
<circle fill="none" stroke="black" cx="25.5546298779647" cy="23.795751929697534" r="0.5" />
<circle fill="none" stroke="black" cx="49.25032736294115" cy="29.29637095042043" r="0.5" />
<circle fill="none" stroke="black" cx="73.13083216898488" cy="33.9291093894355" r="0.5" />
<circle fill="none" stroke="black" cx="97.14221340493341" cy="37.802852022488906" r="0.5" />
<circle fill="none" stroke="black" cx="121.39843483402821" cy="39.47480309940316" r="0.5" />
<circle fill="none" stroke="black" cx="145.7141781953226" cy="38.91314263013214" r="0.5" />
<circle fill="none" stroke="black" cx="169.98651121621438" cy="37.30158455894991" r="0.5" />
<circle fill="none" stroke="black" cx="194.21071499480993" cy="35.075669748212945" r="0.5" />
<circle fill="none" stroke="black" cx="218.27738331434813" cy="31.612784592632906" r="0.5" />
<circle fill="none" stroke="black" cx="8.740494564846326" cy="19.612603999752682" r="0.5" />
<circle fill="none" stroke="black" cx="32.35802300667116" cy="25.44309643369629" r="0.5" />
<circle fill="none" stroke="black" cx="56.10596796299066" cy="30.709522496805555" r="0.5" />
<circle fill="none" stroke="black" cx="80.01680818963504" cy="35.187089466920256" r="0.5" />
<circle fill="none" stroke="black" cx="104.10179635283527" cy="38.54840846935042" r="0.5" />
<circle fill="none" stroke="black" cx="128.39814075749572" cy="39.48662548535013" r="0.5" />
<circle fill="none" stroke="black" cx="152.7038008551272" cy="38.53241173308304" r="0.5" />
<circle fill="none" stroke="black" cx="176.9615803641515" cy="36.71132158239146" r="0.5" />
<circle fill="none" stroke="black" cx="201.16998402888618" cy="34.3230831121065" r="0.5" />
<circle fill="none" stroke="black" cx="225.11735871041344" cy="30.126315343965082" r="0.5" />
</g>
<path fill="none" stroke="red" d="M 240,96.96721305153073 L 240.2215875321572,98.95489988943868 L 228.22103335167043,100.29272257521637 L 227.99832022233954,98.30516154168215 L 215.99705963516607,99.64994454768222 L 216.17810263026217,101.64173355104745 L 204.10025162188026,102.738882585849 L 203.97045235689353,100.7430989926684 L 191.91975952326666,101.52683680759493 L 191.99318179428823,103.52548864573934 L 179.88692400130128,103.96985788059763 L 179.85168586971784,101.97016833617266 L 167.77706778135908,102.18294485550962 L 167.79821033456582,104.1828331004983 L 155.71141385154272,104.31058299679788 L 155.7012456450985,102.31060884507048 L 143.62489147116827,102.3720070697564 L 143.6256766445028,104.37200691563211 L 131.53831419377894,104.37672282007884 L 131.54837947643233,102.37674814771793 L 119.47202087699772,102.31597139668861 L 119.45185817330479,104.31586976045108 L 107.36392400779464,104.19396456785088 L 107.39613228644359,102.1942239279712 L 95.32120404648239,101.99974238088306 L 95.27138406069936,103.99912177684988 L 83.17723634777573,103.69764820862358 L 83.24848356518643,101.698917652993 L 71.17976771935088,101.26871338193007 L 71.06565863499394,103.26545550771075 L 58.9376228207148,102.57107534769246 L 59.12334976591339,100.57971764455944 L 47.099653806403836,99.45830971415953 L 46.846207568449124,101.4421859715069 L 34.80877232393972,99.90347822841767 L 35.12100313156397,97.92800058420846 L 23.19290326116829,96.04272475389291 L 22.84116450201809,98.01155177659234 L 10.964477187302045,95.8896998854304 L 11.304722903120469,93.91885416522112 L 0,91.96721305153073 L -0.34024571581842394,93.93805877174002 L 0.47879989291044367,68.909055131245 L 11.726010438257807,66.13583105658388 L 11.247210545347365,64.19398897686963 L 23.080024579253003,61.24885080759956 L 23.563078678950763,63.18963898170955 L 35.402206000685084,60.32602086490127 L 34.93200292969323,58.38207923202495 L 46.817387019210976,55.65732467153603 L 47.264298392108685,57.606752850457916 L 59.163971743144124,55.16729059114492 L 58.76223372167613,53.20805437207715 L 70.7454820463369,50.951831038274165 L 71.11554275568042,52.91729665013314 L 83.10016699990715,50.73172373565047 L 82.7413499204777,48.76417442152649 L 94.79344172447497,46.915039305339825 L 95.09674963152091,48.89190660324412 L 107.12919448000767,47.614999831220594 L 106.91778281052117,45.62620494335384 L 119.0942027374928,45 L 119.19692233667679,46.9973604291523 L 131.28562607944653,47.00564087801712 L 131.28655142888067,45.00564109208502 L 143.473356252364,45.40481869089866 L 143.40788156212426,47.40374666982587 L 155.53384985437685,48.09346118913421 L 155.64732963450655,46.09668319959664 L 167.8099464079924,46.96658612450491 L 167.66726552773247,48.9614901739289 L 179.79298617303954,49.98212554438165 L 179.96070937769164,47.989170721356 L 192.0994860619659,49.14592754432571 L 191.9097568834189,51.1369079156021 L 203.99887721012576,52.47479775315619 L 204.21883420700576,50.48692982003701 L 216.2578417055445,52.410489903785816 L 215.94228955837562,54.385439736671984 L 227.73021077117562,56.99767411441683 L 228.16234923180068,55.044918023439614 L 239.99999999999994,57.96721305153073 L 239.52066107264645,59.90892214218349  Z"/>
<g>
<circle fill="none" stroke="black" cx="14.075799386747738" cy="65.92804640081816" r="0.5" />
<circle fill="none" stroke="black" cx="37.711415542235635" cy="60.172054861464744" r="0.5" />
<circle fill="none" stroke="black" cx="61.50698728908544" cy="55.12842614503653" r="0.5" />
<circle fill="none" stroke="black" cx="85.43794021799442" cy="50.762109078544285" r="0.5" />
<circle fill="none" stroke="black" cx="109.58400273841558" cy="47.89294512683042" r="0.5" />
<circle fill="none" stroke="black" cx="133.897038335388" cy="47.5" r="0.5" />
<circle fill="none" stroke="black" cx="158.1918122908644" cy="48.70704517173634" r="0.5" />
<circle fill="none" stroke="black" cx="182.43930141151966" cy="50.65942220481388" r="0.5" />
<circle fill="none" stroke="black" cx="206.62548687467105" cy="53.24937750330971" r="0.5" />
<circle fill="none" stroke="black" cx="230.45866351867923" cy="58.061573206376195" r="0.5" />
<circle fill="none" stroke="black" cx="20.868289142915582" cy="64.23629407887375" r="0.5" />
<circle fill="none" stroke="black" cx="44.53553881012319" cy="58.613071449207" r="0.5" />
<circle fill="none" stroke="black" cx="68.38731060821178" cy="53.83959764019921" r="0.5" />
<circle fill="none" stroke="black" cx="92.35696495586092" cy="49.70248055209103" r="0.5" />
<circle fill="none" stroke="black" cx="116.57399699709963" cy="47.533307206328494" r="0.5" />
<circle fill="none" stroke="black" cx="140.89250759565581" cy="47.74587224163364" r="0.5" />
<circle fill="none" stroke="black" cx="165.17377905039845" cy="49.20799289044163" r="0.5" />
<circle fill="none" stroke="black" cx="189.4078185553148" cy="51.32216771046883" r="0.5" />
<circle fill="none" stroke="black" cx="213.53568970673416" cy="54.363617859279124" r="0.5" />
<circle fill="none" stroke="black" cx="237.24402709572342" cy="59.781550695304766" r="0.5" />
<circle fill="none" stroke="black" cx="14.28247897315836" cy="93.96126645314997" r="0.5" />
<circle fill="none" stroke="black" cx="38.06028069001853" cy="97.82881825202054" r="0.5" />
<circle fill="none" stroke="black" cx="62.02358299509249" cy="100.26793899528211" r="0.5" />
<circle fill="none" stroke="black" cx="86.0934021119998" cy="101.2795713879812" r="0.5" />
<circle fill="none" stroke="black" cx="110.18169304973998" cy="101.72502118539514" r="0.5" />
<circle fill="none" stroke="black" cx="134.27375964709256" cy="101.87593893516384" r="0.5" />
<circle fill="none" stroke="black" cx="158.3661737280721" cy="101.78816827201352" r="0.5" />
<circle fill="none" stroke="black" cx="182.45516295925185" cy="101.39031340478165" r="0.5" />
<circle fill="none" stroke="black" cx="206.50629568782003" cy="100.03360868537732" r="0.5" />
<circle fill="none" stroke="black" cx="230.46477493421617" cy="97.50867758512312" r="0.5" />
<circle fill="none" stroke="black" cx="21.172916033788773" cy="95.19473329183941" r="0.5" />
<circle fill="none" stroke="black" cx="45.00432454557712" cy="98.71064895862446" r="0.5" />
<circle fill="none" stroke="black" cx="69.01234707033719" cy="100.659953979569" r="0.5" />
<circle fill="none" stroke="black" cx="93.09139337824861" cy="101.44627765585722" r="0.5" />
<circle fill="none" stroke="black" cx="117.18132758840753" cy="101.79496185383663" r="0.5" />
<circle fill="none" stroke="black" cx="141.2737575616516" cy="101.87672282007884" r="0.5" />
<circle fill="none" stroke="black" cx="165.36577219574409" cy="101.71319300032658" r="0.5" />
<circle fill="none" stroke="black" cx="189.45025633755435" cy="101.13292093936695" r="0.5" />
<circle fill="none" stroke="black" cx="213.4775824216173" cy="99.40139079343955" r="0.5" />
<circle fill="none" stroke="black" cx="237.4191547508179" cy="96.71133601342672" r="0.5" />
</g>
<path fill="none" stroke="red" d="M 240.2215875321572,113.01231316209206 L 240,115 L 227.99832022233954,113.6620515098486 L 228.22103335167043,111.67449047631436 L 216.17810263026217,110.3254795004833 L 215.99705963516607,112.31726850384852 L 203.97045235689353,111.22411405886236 L 204.10025162188026,109.22833046568175 L 191.99318179428823,108.4417244057914 L 191.91975952326666,110.44037624393582 L 179.85168586971784,109.99704471535807 L 179.88692400130128,107.9973551709331 L 167.79821033456582,107.78437995103245 L 167.77706778135908,109.78426819602113 L 155.7012456450985,109.65660420646027 L 155.71141385154272,107.65663005473287 L 143.6256766445028,107.59520613589864 L 143.62489147116827,109.59520598177434 L 131.54837947643233,109.59046490381282 L 131.53831419377894,107.59049023145191 L 119.45185817330479,107.65134329107967 L 119.47202087699772,109.65124165484212 L 107.39613228644359,109.77298912355955 L 107.36392400779464,107.77324848367985 L 95.27138406069936,107.96809127468087 L 95.32120404648239,109.96747067064767 L 83.24848356518643,110.26829539853773 L 83.17723634777573,108.26956484290717 L 71.06565863499394,108.70175754381998 L 71.17976771935088,110.69849966960068 L 59.12334976591339,111.3874954069713 L 58.9376228207148,109.39613770383829 L 46.846207568449124,110.52502708002383 L 47.099653806403836,112.50890333737121 L 35.12100313156397,114.03921246732227 L 34.80877232393972,112.06373482311308 L 22.84116450201809,113.95566127493841 L 23.19290326116829,115.92448829763784 L 11.304722903120469,118.04835888630961 L 10.964477187302045,116.07751316610035 L -0.34024571581842394,118.02915427979073 L 0,120 L 0.47879989291044367,143.05815792028574 L 11.726010438257807,145.83138199494687 L 11.247210545347365,147.7732240746611 L 23.080024579253003,150.71836224393118 L 23.563078678950763,148.77757406982118 L 35.402206000685084,151.64119218662947 L 34.93200292969323,153.58513381950578 L 46.817387019210976,156.3098883799947 L 47.264298392108685,154.36046020107284 L 59.163971743144124,156.79992246038583 L 58.76223372167613,158.7591586794536 L 70.7454820463369,161.01538201325658 L 71.11554275568042,159.0499164013976 L 83.10016699990715,161.23548931588027 L 82.7413499204777,163.20303863000424 L 94.79344172447497,165.05217374619093 L 95.09674963152091,163.07530644828663 L 107.12919448000767,164.35221322031015 L 106.91778281052117,166.3410081081769 L 119.0942027374928,166.96721305153073 L 119.19692233667679,164.96985262237843 L 131.28562607944653,164.96157217351362 L 131.28655142888067,166.96157195944573 L 143.473356252364,166.56239436063208 L 143.40788156212426,164.56346638170487 L 155.53384985437685,163.87375186239655 L 155.64732963450655,165.8705298519341 L 167.8099464079924,165.00062692702585 L 167.66726552773247,163.00572287760184 L 179.79298617303954,161.9850875071491 L 179.96070937769164,163.97804233017473 L 192.0994860619659,162.82128550720503 L 191.9097568834189,160.83030513592865 L 203.99887721012576,159.49241529837457 L 204.21883420700576,161.48028323149373 L 216.2578417055445,159.55672314774492 L 215.94228955837562,157.58177331485876 L 227.73021077117562,154.9695389371139 L 228.16234923180068,156.92229502809113 L 239.99999999999994,154 L 239.52066107264645,152.05829090934725  Z"/>
<g>
<circle fill="none" stroke="black" cx="1.977149347687789" cy="119.78902637468339" r="0.5" />
<circle fill="none" stroke="black" cx="25.70065300764998" cy="115.59045168237205" r="0.5" />
<circle fill="none" stroke="black" cx="49.56937642591081" cy="112.34236615322762" r="0.5" />
<circle fill="none" stroke="black" cx="73.60041692872788" cy="110.69052794940113" r="0.5" />
<circle fill="none" stroke="black" cx="97.6831040810843" cy="110.01505740552938" r="0.5" />
<circle fill="none" stroke="black" cx="121.77386310154914" cy="109.72364940562778" r="0.5" />
<circle fill="none" stroke="black" cx="145.86640995381794" cy="109.69306619864432" r="0.5" />
<circle fill="none" stroke="black" cx="169.95797223454773" cy="109.90734893956937" r="0.5" />
<circle fill="none" stroke="black" cx="194.03707202341857" cy="110.65174024960842" r="0.5" />
<circle fill="none" stroke="black" cx="218.0463280826794" cy="112.6213369170436" r="0.5" />
<circle fill="none" stroke="black" cx="8.872808990810126" cy="118.58612644571016" r="0.5" />
<circle fill="none" stroke="black" cx="32.61573970326355" cy="114.504109262361" r="0.5" />
<circle fill="none" stroke="black" cx="56.53868148945646" cy="111.69055965940085" r="0.5" />
<circle fill="none" stroke="black" cx="80.59577913902368" cy="110.4368010376921" r="0.5" />
<circle fill="none" stroke="black" cx="104.68209818368365" cy="109.8964230465708" r="0.5" />
<circle fill="none" stroke="black" cx="128.77378447241506" cy="109.69192379681766" r="0.5" />
<circle fill="none" stroke="black" cx="152.8663137722337" cy="109.72753675586982" r="0.5" />
<circle fill="none" stroke="black" cx="176.95687850475264" cy="110.02985345866894" r="0.5" />
<circle fill="none" stroke="black" cx="201.02281375989145" cy="111.0961839496529" r="0.5" />
<circle fill="none" stroke="black" cx="225.0029691108626" cy="113.39897892933375" r="0.5" />
<circle fill="none" stroke="black" cx="14.075799386747738" cy="145.94846356405264" r="0.5" />
<circle fill="none" stroke="black" cx="37.711415542235635" cy="151.70445510340608" r="0.5" />
<circle fill="none" stroke="black" cx="61.50698728908544" cy="156.74808381983428" r="0.5" />
<circle fill="none" stroke="black" cx="85.43794021799442" cy="161.11440088632654" r="0.5" />
<circle fill="none" stroke="black" cx="109.58400273841558" cy="163.9835648380404" r="0.5" />
<circle fill="none" stroke="black" cx="133.897038335388" cy="164.37650996487082" r="0.5" />
<circle fill="none" stroke="black" cx="158.1918122908644" cy="163.16946479313447" r="0.5" />
<circle fill="none" stroke="black" cx="182.43930141151966" cy="161.21708776005693" r="0.5" />
<circle fill="none" stroke="black" cx="206.62548687467105" cy="158.6271324615611" r="0.5" />
<circle fill="none" stroke="black" cx="230.45866351867923" cy="153.8149367584946" r="0.5" />
<circle fill="none" stroke="black" cx="20.868289142915582" cy="147.64021588599707" r="0.5" />
<circle fill="none" stroke="black" cx="44.53553881012319" cy="153.2634385156638" r="0.5" />
<circle fill="none" stroke="black" cx="68.38731060821178" cy="158.03691232467162" r="0.5" />
<circle fill="none" stroke="black" cx="92.35696495586092" cy="162.1740294127798" r="0.5" />
<circle fill="none" stroke="black" cx="116.57399699709963" cy="164.3432027585423" r="0.5" />
<circle fill="none" stroke="black" cx="140.89250759565581" cy="164.13063772323716" r="0.5" />
<circle fill="none" stroke="black" cx="165.17377905039845" cy="162.6685170744292" r="0.5" />
<circle fill="none" stroke="black" cx="189.4078185553148" cy="160.55434225440197" r="0.5" />
<circle fill="none" stroke="black" cx="213.53568970673416" cy="157.5128921055917" r="0.5" />
<circle fill="none" stroke="black" cx="237.24402709572342" cy="152.09495926956603" r="0.5" />
</g>
<path fill="none" stroke="red" d="M 0,211.96721305153073 L 0,191.96721305153073 L 11.247210545347365,189.19398897686963 L 11.726010438257807,191.1358310565839 L 23.563078678950763,188.18963898170955 L 23.080024579253003,186.24885080759955 L 34.93200292969323,183.38207923202495 L 35.402206000685084,185.32602086490127 L 47.264298392108685,182.60675285045792 L 46.817387019210976,180.65732467153603 L 58.76223372167613,178.20805437207716 L 59.163971743144124,180.16729059114493 L 71.11554275568042,177.91729665013315 L 70.7454820463369,175.95183103827418 L 82.7413499204777,173.7641744215265 L 83.10016699990715,175.73172373565046 L 95.09674963152091,173.8919066032441 L 94.79344172447497,171.91503930533983 L 106.91778281052117,170.62620494335386 L 107.12919448000767,172.6149998312206 L 119.19692233667679,171.9973604291523 L 119.0942027374928,170 L 131.28655142888067,170.00564109208503 L 131.28562607944653,172.00564087801712 L 143.40788156212426,172.40374666982586 L 143.473356252364,170.40481869089865 L 155.64732963450655,171.09668319959664 L 155.53384985437685,173.09346118913422 L 167.66726552773247,173.9614901739289 L 167.8099464079924,171.96658612450491 L 179.96070937769164,172.989170721356 L 179.79298617303954,174.98212554438166 L 191.9097568834189,176.1369079156021 L 192.0994860619659,174.1459275443257 L 204.21883420700576,175.486929820037 L 203.99887721012576,177.4747977531562 L 215.94228955837562,179.38543973667197 L 216.2578417055445,177.41048990378582 L 228.16234923180068,180.0449180234396 L 227.73021077117562,181.99767411441684 L 239.52066107264645,184.90892214218348 L 239.99999999999994,182.96721305153073 L 240,211.96721305153073  Z"/>
<g>
<circle fill="none" stroke="black" cx="1.9443783298580302" cy="194.03160603080474" r="0.5" />
<circle fill="none" stroke="black" cx="25.554629901694597" cy="188.17146121691908" r="0.5" />
<circle fill="none" stroke="black" cx="49.25032749816791" cy="182.67084271099478" r="0.5" />
<circle fill="none" stroke="black" cx="73.1308323411529" cy="178.03810457424453" r="0.5" />
<circle fill="none" stroke="black" cx="97.14221338102128" cy="174.16436079020428" r="0.5" />
<circle fill="none" stroke="black" cx="121.39843484382976" cy="172.4924101273762" r="0.5" />
<circle fill="none" stroke="black" cx="145.71417826268123" cy="173.05406983176024" r="0.5" />
<circle fill="none" stroke="black" cx="169.9865112275222" cy="174.66562872250583" r="0.5" />
<circle fill="none" stroke="black" cx="194.2107149693466" cy="176.89154372731016" r="0.5" />
<circle fill="none" stroke="black" cx="218.27738337836186" cy="180.35442821043515" r="0.5" />
<circle fill="none" stroke="black" cx="8.7404945567906" cy="192.3546090028194" r="0.5" />
<circle fill="none" stroke="black" cx="32.35802300693924" cy="186.52411661776966" r="0.5" />
<circle fill="none" stroke="black" cx="56.10596796853529" cy="181.25769055364634" r="0.5" />
<circle fill="none" stroke="black" cx="80.01680820184488" cy="176.78012366208762" r="0.5" />
<circle fill="none" stroke="black" cx="104.1017963655619" cy="173.41880486313585" r="0.5" />
<circle fill="none" stroke="black" cx="128.39814077101198" cy="172.48058850758034" r="0.5" />
<circle fill="none" stroke="black" cx="152.70380089357806" cy="173.43480126290706" r="0.5" />
<circle fill="none" stroke="black" cx="176.9615804587304" cy="175.25589071505848" r="0.5" />
<circle fill="none" stroke="black" cx="201.16998405940976" cy="177.64412984699624" r="0.5" />
<circle fill="none" stroke="black" cx="225.11735872320438" cy="181.84089771066073" r="0.5" />
</g>
</svg>
