<svg viewBox="0 0 120 240" xmlns="http://www.w3.org/2000/svg">
<path fill="none" stroke="blue" d="M 0,30 L 6.401202201843262,31.769346237182617 L 14.515401840209961,34.2374153137207 L 24.072126388549805,37.23516082763672 L 34.8009033203125,40.59354019165039 L 46.43125534057617,44.14350128173828 L 58.69271469116211,47.71600341796875 L 71.31480407714844,51.141998291015625 L 84.02704620361328,54.25244140625 L 96.55897521972656,56.8782844543457 L 108.64012145996094,58.850486755371094 L 120,60 L 131.35987854003906,60.27047348022461 L 143.44102478027344,59.808414459228516 L 155.9729461669922,58.749061584472656 L 168.68521118164062,57.2276496887207 L 181.30728149414062,55.37941360473633 L 193.56874084472656,53.339595794677734 L 205.1990966796875,51.24342727661133 L 215.92787170410156,49.22614669799805 L 225.48458862304688,47.42298889160156 L 233.5988006591797,45.96919631958008 L 240,45  Z"/>
<rect x="0" y="30" width="1" height="1"/>
<rect x="6.401202201843262" y="31.769346237182617" width="1" height="1"/>
<rect x="14.515401840209961" y="34.2374153137207" width="1" height="1"/>
<rect x="24.072126388549805" y="37.23516082763672" width="1" height="1"/>
<rect x="34.8009033203125" y="40.59354019165039" width="1" height="1"/>
<rect x="46.43125534057617" y="44.14350128173828" width="1" height="1"/>
<rect x="58.69271469116211" y="47.71600341796875" width="1" height="1"/>
<rect x="71.31480407714844" y="51.141998291015625" width="1" height="1"/>
<rect x="84.02704620361328" y="54.25244140625" width="1" height="1"/>
<rect x="96.55897521972656" y="56.8782844543457" width="1" height="1"/>
<rect x="108.64012145996094" y="58.850486755371094" width="1" height="1"/>
<rect x="120" y="60" width="1" height="1"/>
<rect x="131.35987854003906" y="60.27047348022461" width="1" height="1"/>
<rect x="143.44102478027344" y="59.808414459228516" width="1" height="1"/>
<rect x="155.9729461669922" y="58.749061584472656" width="1" height="1"/>
<rect x="168.68521118164062" y="57.2276496887207" width="1" height="1"/>
<rect x="181.30728149414062" y="55.37941360473633" width="1" height="1"/>
<rect x="193.56874084472656" y="53.339595794677734" width="1" height="1"/>
<rect x="205.1990966796875" y="51.24342727661133" width="1" height="1"/>
<rect x="215.92787170410156" y="49.22614669799805" width="1" height="1"/>
<rect x="225.48458862304688" y="47.42298889160156" width="1" height="1"/>
<rect x="233.5988006591797" y="45.96919631958008" width="1" height="1"/>
<rect x="240" y="45" width="1" height="1"/>
<rect x="6.934038871681981" y="29.84163124702583" width="1" height="1"/>
<rect x="15.097407815905946" y="32.3239710254661" width="1" height="1"/>
<rect x="24.67072608018959" y="35.32684261277612" width="1" height="1"/>
<rect x="35.39836678416561" y="38.68486593726316" width="1" height="1"/>
<rect x="47.01512714010256" y="42.23062550905522" width="1" height="1"/>
<rect x="59.25217246809792" y="45.79584535264547" width="1" height="1"/>
<rect x="71.83870522407327" y="49.21183571023367" width="1" height="1"/>
<rect x="84.50238587154033" y="52.30974940799217" width="1" height="1"/>
<rect x="96.96913266860895" y="54.920793492137626" width="1" height="1"/>
<rect x="108.96234869661198" y="56.87661502499948" width="1" height="1"/>
<rect x="120.20135300034336" y="58.01016157207357" width="1" height="1"/>
<rect x="131.40748412788582" y="58.27104013349715" width="1" height="1"/>
<rect x="143.36458808510014" y="57.809875635079486" width="1" height="1"/>
<rect x="155.8044822758968" y="56.75616923479669" width="1" height="1"/>
<rect x="168.44754596170563" y="55.241821085030736" width="1" height="1"/>
<rect x="181.0175137021848" y="53.40051627876284" width="1" height="1"/>
<rect x="193.24053132695732" y="51.366709961071116" width="1" height="1"/>
<rect x="204.84434735992923" y="49.27514047837002" width="1" height="1"/>
<rect x="215.55829734038093" y="47.260589578583684" width="1" height="1"/>
<rect x="225.11377217571817" y="45.457665721639295" width="1" height="1"/>
<rect x="233.24608471767596" y="44.00054412464844" width="1" height="1"/>
<rect x="239.70059530977315" y="43.02253778001445" width="1" height="1"/>
</svg>
