<svg viewBox="-10 -10 250 220" xmlns="http://www.w3.org/2000/svg">
<path fill="none" stroke="red" d="M 0,0 L 0,20 L 11.322880719463608,22.12113764779432 L 11.691138705038455,20.155333472384072 L 23.605631769450987,22.552907770261804 L 23.21104856802594,24.513597469615878 L 35.09846848846823,26.909787755705718 L 35.493666837804525,24.949221953524656 L 47.38283378156222,27.292340054753154 L 46.99610927470876,29.254594919901653 L 58.910686101980595,31.511711785762994 L 59.28294834599937,29.546661958995717 L 71.19991390505645,31.671165870456136 L 70.84887821853486,33.64011837033731 L 82.81410102769468,35.610180932219315 L 83.1390243540721,33.636751219263765 L 95.10232151777741,35.39668319446788 L 94.8111847497576,37.375379579037016 L 106.84710170704058,38.85209148547139 L 107.09065957007576,36.86697698818068 L 119.1017359828825,37.927365050798024 L 118.92566151454515,39.91959941994231 L 131.03948084575057,40.44734148146654 L 131.1265288607346,38.44923671867572 L 143.1794603438566,38.53505305099987 L 143.16500207584082,40.535000789938564 L 155.28914121998451,40.31575712880664 L 155.25298066118464,38.31608405202952 L 167.33352464376918,37.870125068047884 L 167.40724697303074,39.868765860728814 L 179.51728935613895,39.238243723517904 L 179.4132981036058,37.24094909843211 L 191.4933938799085,36.477105581091905 L 191.6195845926574,38.47312058705151 L 203.7153783616865,37.61085711404209 L 203.57316679441232,35.61591955358226 L 215.65461699979429,34.69417822744056 L 215.8067586224595,36.688383063121385 L 227.89795475054578,35.76348992417229 L 227.7454141613677,33.76931556653623 L 239.8740749909795,33.003968213654105 L 239.9999999999999,35.00000000000001 L 240,0  Z"/>
<g>
<circle fill="none" stroke="black" cx="2" cy="15.535000789938564" r="0.5" />
<circle fill="none" stroke="black" cx="11.825226281584335" cy="17.75587143603547" r="0.5" />
<circle fill="none" stroke="black" cx="23.686587761103173" cy="20.144917701147673" r="0.5" />
<circle fill="none" stroke="black" cx="35.54785266361558" cy="22.53444452047859" r="0.5" />
<circle fill="none" stroke="black" cx="47.41964171237608" cy="24.871003052347184" r="0.5" />
<circle fill="none" stroke="black" cx="59.308121960807064" cy="27.121058715632245" r="0.5" />
<circle fill="none" stroke="black" cx="71.22069142405788" cy="29.239667270975076" r="0.5" />
<circle fill="none" stroke="black" cx="83.16037311329957" cy="31.198933446581556" r="0.5" />
<circle fill="none" stroke="black" cx="95.13193124379627" cy="32.952220029828354" r="0.5" />
<circle fill="none" stroke="black" cx="107.14167285944454" cy="34.420932356668914" r="0.5" />
<circle fill="none" stroke="black" cx="119.19446305706481" cy="35.474716588686604" r="0.5" />
<circle fill="none" stroke="black" cx="131.28198076657267" cy="35.98923633744849" r="0.5" />
<circle fill="none" stroke="black" cx="143.38064145481314" cy="36.068827472108815" r="0.5" />
<circle fill="none" stroke="black" cx="155.477742318527" cy="35.845056583146544" r="0.5" />
<circle fill="none" stroke="black" cx="167.5687882118465" cy="35.395915165045906" r="0.5" />
<circle fill="none" stroke="black" cx="179.6518559826249" cy="34.765724039702064" r="0.5" />
<circle fill="none" stroke="black" cx="191.72716317423024" cy="34.000890964835214" r="0.5" />
<circle fill="none" stroke="black" cx="203.79602079108184" cy="33.13984932699701" r="0.5" />
<circle fill="none" stroke="black" cx="215.86050789380715" cy="32.21921571823856" r="0.5" />
<circle fill="none" stroke="black" cx="227.9248345009974" cy="31.296473687776935" r="0.5" />
<circle fill="none" stroke="black" cx="237.99999999999994" cy="30.535000789938568" r="0.5" />
</g>
<path fill="none" stroke="blue" d="M 240,85.53500078993856 L 240.2215875321572,87.52268762784651 L 228.22103335167043,88.8605103136242 L 227.99832022233954,86.87294928008998 L 215.99705963516607,88.21773228609004 L 216.17810263026217,90.20952128945527 L 204.10025162188026,91.30667032425683 L 203.97045235689353,89.31088673107621 L 191.91975952326666,90.09462454600276 L 191.99318179428823,92.09327638414717 L 179.88692400130128,92.53764561900545 L 179.85168586971784,90.53795607458049 L 167.77706778135908,90.75073259391743 L 167.79821033456582,92.75062083890612 L 155.71141385154272,92.87837073520569 L 155.7012456450985,90.87839658347829 L 143.62489147116827,90.93979480816422 L 143.6256766445028,92.93979465403993 L 131.53831419377894,92.94451055848666 L 131.54837947643233,90.94453588612575 L 119.47202087699772,90.88375913509643 L 119.45185817330479,92.8836574988589 L 107.36392400779464,92.76175230625871 L 107.39613228644359,90.76201166637901 L 95.32120404648239,90.5675301192909 L 95.27138406069936,92.56690951525769 L 83.17723634777573,92.26543594703139 L 83.24848356518643,90.26670539140083 L 71.17976771935088,89.83650112033789 L 71.06565863499394,91.83324324611858 L 58.9376228207148,91.13886308610029 L 59.12334976591339,89.14750538296727 L 47.099653806403836,88.02609745256736 L 46.846207568449124,90.00997370991473 L 34.80877232393972,88.47126596682548 L 35.12100313156397,86.49578832261628 L 23.19290326116829,84.61051249230073 L 22.84116450201809,86.57933951500016 L 10.964477187302045,84.45748762383822 L 11.304722903120469,82.48664190362895 L 0,80.53500078993856 L -0.34024571581842394,82.50584651014783 L 0.3682579855748467,67.5008049653488 L 11.691138705038455,65.37966731755449 L 11.322880719463608,63.413863142144244 L 23.21104856802594,61.02140332032269 L 23.605631769450987,62.98209301967676 L 35.493666837804525,60.58577883641391 L 35.09846848846823,58.62521303423284 L 46.99610927470876,56.280405870036915 L 47.38283378156222,58.24266073518541 L 59.28294834599937,55.98833883094285 L 58.910686101980595,54.02328900417557 L 70.84887821853486,51.89488241960125 L 71.19991390505645,53.86383491948243 L 83.1390243540721,51.8982495706748 L 82.81410102769468,49.92481985771925 L 94.8111847497576,48.15962121090155 L 95.10232151777741,50.13831759547068 L 107.09065957007576,48.66802380175788 L 106.84710170704058,46.682909304467174 L 118.92566151454515,45.615401369996256 L 119.1017359828825,47.60763573914054 L 131.1265288607346,47.085764071262844 L 131.03948084575057,45.08765930847203 L 143.16500207584082,45 L 143.1794603438566,46.999947738938694 L 155.25298066118464,47.21891673790905 L 155.28914121998451,45.21924366113193 L 167.40724697303074,45.66623492920975 L 167.33352464376918,47.66487572189068 L 179.4132981036058,48.29405169150645 L 179.51728935613895,46.29675706642066 L 191.6195845926574,47.06188020288705 L 191.4933938799085,49.05789520884666 L 203.57316679441232,49.919081236356305 L 203.7153783616865,47.924143675896474 L 215.8067586224595,48.84661772681718 L 215.65461699979429,50.840822562498005 L 227.7454141613677,51.765685223402336 L 227.89795475054578,49.771510865766274 L 239.9999999999999,50.53500078993856 L 239.8740749909795,52.53103257628446  Z"/>
<g>
<circle fill="none" stroke="black" cx="2" cy="70.53382668217026" r="0.5" />
<circle fill="none" stroke="black" cx="11.825226281584335" cy="68.31295603607334" r="0.5" />
<circle fill="none" stroke="black" cx="23.686587761103173" cy="65.92390977096115" r="0.5" />
<circle fill="none" stroke="black" cx="35.54785266361558" cy="63.53438295163022" r="0.5" />
<circle fill="none" stroke="black" cx="47.41964171237608" cy="61.19782441976163" r="0.5" />
<circle fill="none" stroke="black" cx="59.308121960807064" cy="58.94776875647657" r="0.5" />
<circle fill="none" stroke="black" cx="71.22069142405788" cy="56.82916020113374" r="0.5" />
<circle fill="none" stroke="black" cx="83.16037311329957" cy="54.86989402552726" r="0.5" />
<circle fill="none" stroke="black" cx="95.13193124379627" cy="53.11660744228047" r="0.5" />
<circle fill="none" stroke="black" cx="107.14167285944454" cy="51.647895115439894" r="0.5" />
<circle fill="none" stroke="black" cx="119.19446305706481" cy="50.59411088342221" r="0.5" />
<circle fill="none" stroke="black" cx="131.28198076657267" cy="50.079591134660326" r="0.5" />
<circle fill="none" stroke="black" cx="143.38064145481314" cy="50" r="0.5" />
<circle fill="none" stroke="black" cx="155.477742318527" cy="50.22377088896228" r="0.5" />
<circle fill="none" stroke="black" cx="167.5687882118465" cy="50.6729123070629" r="0.5" />
<circle fill="none" stroke="black" cx="179.6518559826249" cy="51.30310343240675" r="0.5" />
<circle fill="none" stroke="black" cx="191.72716317423024" cy="52.0679365072736" r="0.5" />
<circle fill="none" stroke="black" cx="203.79602079108184" cy="52.928978145111806" r="0.5" />
<circle fill="none" stroke="black" cx="215.86050789380715" cy="53.84961175387026" r="0.5" />
<circle fill="none" stroke="black" cx="227.9248345009974" cy="54.772353784331884" r="0.5" />
<circle fill="none" stroke="black" cx="237.99999999999994" cy="55.53382668217024" r="0.5" />
<circle fill="none" stroke="black" cx="2" cy="77.94451055848666" r="0.5" />
<circle fill="none" stroke="black" cx="11.80634893746189" cy="79.98841067490488" r="0.5" />
<circle fill="none" stroke="black" cx="23.669202636182476" cy="82.10136546956804" r="0.5" />
<circle fill="none" stroke="black" cx="35.57260871493367" cy="83.97088028599686" r="0.5" />
<circle fill="none" stroke="black" cx="47.52685360690985" cy="85.48006648945584" r="0.5" />
<circle fill="none" stroke="black" cx="59.525140102032125" cy="86.58350846039197" r="0.5" />
<circle fill="none" stroke="black" cx="71.55513989477544" cy="87.26432465730785" r="0.5" />
<circle fill="none" stroke="black" cx="83.5973072118068" cy="87.68647398062225" r="0.5" />
<circle fill="none" stroke="black" cx="95.64325190723213" cy="87.98432630940582" r="0.5" />
<circle fill="none" stroke="black" cx="107.69139662440544" cy="88.17510543457854" r="0.5" />
<circle fill="none" stroke="black" cx="119.74045449347025" cy="88.2953776257925" r="0.5" />
<circle fill="none" stroke="black" cx="131.78997529772803" cy="88.35500074281916" r="0.5" />
<circle fill="none" stroke="black" cx="143.83964382960778" cy="88.34859848315902" r="0.5" />
<circle fill="none" stroke="black" cx="155.88915050293744" cy="88.2866100304114" r="0.5" />
<circle fill="none" stroke="black" cx="167.93811494002986" cy="88.15783574196224" r="0.5" />
<circle fill="none" stroke="black" cx="179.98588018167027" cy="87.94479190782388" r="0.5" />
<circle fill="none" stroke="black" cx="192.02700163378793" cy="87.49880464699405" r="0.5" />
<circle fill="none" stroke="black" cx="204.05071929388583" cy="86.71386093458275" r="0.5" />
<circle fill="none" stroke="black" cx="216.0504762681759" cy="85.62184710845195" r="0.5" />
<circle fill="none" stroke="black" cx="228.02497836327294" cy="84.27930404410765" r="0.5" />
<circle fill="none" stroke="black" cx="238" cy="82.94451055848666" r="0.5" />
</g>
<path fill="none" stroke="green" d="M 240.2215875321572,103.01231316209206 L 240,105 L 227.99832022233954,103.6620515098486 L 228.22103335167043,101.67449047631436 L 216.17810263026217,100.3254795004833 L 215.99705963516607,102.31726850384852 L 203.97045235689353,101.22411405886236 L 204.10025162188026,99.22833046568175 L 191.99318179428823,98.4417244057914 L 191.91975952326666,100.44037624393582 L 179.85168586971784,99.99704471535807 L 179.88692400130128,97.9973551709331 L 167.79821033456582,97.78437995103245 L 167.77706778135908,99.78426819602113 L 155.7012456450985,99.65660420646027 L 155.71141385154272,97.65663005473287 L 143.6256766445028,97.59520613589864 L 143.62489147116827,99.59520598177434 L 131.54837947643233,99.59046490381282 L 131.53831419377894,97.59049023145191 L 119.45185817330479,97.65134329107967 L 119.47202087699772,99.65124165484212 L 107.39613228644359,99.77298912355955 L 107.36392400779464,97.77324848367985 L 95.27138406069936,97.96809127468087 L 95.32120404648239,99.96747067064767 L 83.24848356518643,100.26829539853773 L 83.17723634777573,98.26956484290717 L 71.06565863499394,98.70175754381998 L 71.17976771935088,100.69849966960068 L 59.12334976591339,101.3874954069713 L 58.9376228207148,99.39613770383829 L 46.846207568449124,100.52502708002383 L 47.099653806403836,102.50890333737121 L 35.12100313156397,104.03921246732227 L 34.80877232393972,102.06373482311308 L 22.84116450201809,103.95566127493841 L 23.19290326116829,105.92448829763784 L 11.304722903120469,108.04835888630961 L 10.964477187302045,106.07751316610035 L -0.34024571581842394,108.02915427979073 L 0,110 L 0.3682579855748467,123.03419582458976 L 11.691138705038455,125.15533347238407 L 11.322880719463608,127.12113764779431 L 23.21104856802594,129.5135974696159 L 23.605631769450987,127.55290777026181 L 35.493666837804525,129.94922195352467 L 35.09846848846823,131.90978775570574 L 46.99610927470876,134.25459491990165 L 47.38283378156222,132.29234005475314 L 59.28294834599937,134.5466619589957 L 58.910686101980595,136.511711785763 L 70.84887821853486,138.64011837033732 L 71.19991390505645,136.67116587045615 L 83.1390243540721,138.63675121926377 L 82.81410102769468,140.61018093221932 L 94.8111847497576,142.37537957903703 L 95.10232151777741,140.39668319446787 L 107.09065957007576,141.86697698818068 L 106.84710170704058,143.8520914854714 L 118.92566151454515,144.9195994199423 L 119.1017359828825,142.92736505079802 L 131.1265288607346,143.4492367186757 L 131.03948084575057,145.44734148146654 L 143.16500207584082,145.53500078993858 L 143.1794603438566,143.53505305099986 L 155.25298066118464,143.3160840520295 L 155.28914121998451,145.31575712880664 L 167.40724697303074,144.86876586072881 L 167.33352464376918,142.87012506804788 L 179.4132981036058,142.2409490984321 L 179.51728935613895,144.2382437235179 L 191.6195845926574,143.4731205870515 L 191.4933938799085,141.4771055810919 L 203.57316679441232,140.61591955358227 L 203.7153783616865,142.6108571140421 L 215.8067586224595,141.6883830631214 L 215.65461699979429,139.69417822744055 L 227.7454141613677,138.76931556653622 L 227.89795475054578,140.7634899241723 L 239.9999999999999,140 L 239.8740749909795,138.0039682136541  Z"/>
<g>
<circle fill="none" stroke="black" cx="2" cy="112.59049023145191" r="0.5" />
<circle fill="none" stroke="black" cx="11.80634893746189" cy="110.5465901150337" r="0.5" />
<circle fill="none" stroke="black" cx="23.669202636182476" cy="108.43363532037053" r="0.5" />
<circle fill="none" stroke="black" cx="35.57260871493367" cy="106.56412050394171" r="0.5" />
<circle fill="none" stroke="black" cx="47.52685360690985" cy="105.05493430048273" r="0.5" />
<circle fill="none" stroke="black" cx="59.525140102032125" cy="103.9514923295466" r="0.5" />
<circle fill="none" stroke="black" cx="71.55513989477544" cy="103.27067613263071" r="0.5" />
<circle fill="none" stroke="black" cx="83.5973072118068" cy="102.84852680931631" r="0.5" />
<circle fill="none" stroke="black" cx="95.64325190723213" cy="102.55067448053273" r="0.5" />
<circle fill="none" stroke="black" cx="107.69139662440544" cy="102.35989535536002" r="0.5" />
<circle fill="none" stroke="black" cx="119.74045449347025" cy="102.23962316414607" r="0.5" />
<circle fill="none" stroke="black" cx="131.78997529772803" cy="102.1800000471194" r="0.5" />
<circle fill="none" stroke="black" cx="143.83964382960778" cy="102.18640230677954" r="0.5" />
<circle fill="none" stroke="black" cx="155.88915050293744" cy="102.24839075952717" r="0.5" />
<circle fill="none" stroke="black" cx="167.93811494002986" cy="102.37716504797632" r="0.5" />
<circle fill="none" stroke="black" cx="179.98588018167027" cy="102.59020888211468" r="0.5" />
<circle fill="none" stroke="black" cx="192.02700163378793" cy="103.03619614294452" r="0.5" />
<circle fill="none" stroke="black" cx="204.05071929388583" cy="103.8211398553558" r="0.5" />
<circle fill="none" stroke="black" cx="216.0504762681759" cy="104.91315368148662" r="0.5" />
<circle fill="none" stroke="black" cx="228.02497836327294" cy="106.2556967458309" r="0.5" />
<circle fill="none" stroke="black" cx="238" cy="107.59049023145191" r="0.5" />
<circle fill="none" stroke="black" cx="2" cy="120.53500078993858" r="0.5" />
<circle fill="none" stroke="black" cx="11.825226281584335" cy="122.75587143603549" r="0.5" />
<circle fill="none" stroke="black" cx="23.686587761103173" cy="125.14491770114769" r="0.5" />
<circle fill="none" stroke="black" cx="35.54785266361558" cy="127.5344445204786" r="0.5" />
<circle fill="none" stroke="black" cx="47.41964171237608" cy="129.8710030523472" r="0.5" />
<circle fill="none" stroke="black" cx="59.308121960807064" cy="132.12105871563224" r="0.5" />
<circle fill="none" stroke="black" cx="71.22069142405788" cy="134.2396672709751" r="0.5" />
<circle fill="none" stroke="black" cx="83.16037311329957" cy="136.19893344658158" r="0.5" />
<circle fill="none" stroke="black" cx="95.13193124379627" cy="137.95222002982837" r="0.5" />
<circle fill="none" stroke="black" cx="107.14167285944454" cy="139.42093235666894" r="0.5" />
<circle fill="none" stroke="black" cx="119.19446305706481" cy="140.47471658868662" r="0.5" />
<circle fill="none" stroke="black" cx="131.28198076657267" cy="140.98923633744852" r="0.5" />
<circle fill="none" stroke="black" cx="143.38064145481314" cy="141.06882747210884" r="0.5" />
<circle fill="none" stroke="black" cx="155.477742318527" cy="140.84505658314654" r="0.5" />
<circle fill="none" stroke="black" cx="167.5687882118465" cy="140.39591516504592" r="0.5" />
<circle fill="none" stroke="black" cx="179.6518559826249" cy="139.7657240397021" r="0.5" />
<circle fill="none" stroke="black" cx="191.72716317423024" cy="139.00089096483524" r="0.5" />
<circle fill="none" stroke="black" cx="203.79602079108184" cy="138.13984932699702" r="0.5" />
<circle fill="none" stroke="black" cx="215.86050789380715" cy="137.21921571823856" r="0.5" />
<circle fill="none" stroke="black" cx="227.9248345009974" cy="136.29647368777694" r="0.5" />
<circle fill="none" stroke="black" cx="237.99999999999994" cy="135.53500078993858" r="0.5" />
</g>
<path fill="none" stroke="yellow" d="M 0,190.53500078993858 L 0,170.53500078993858 L 11.322880719463608,168.41386314214424 L 11.691138705038455,170.3796673175545 L 23.605631769450987,167.98209301967677 L 23.21104856802594,166.0214033203227 L 35.09846848846823,163.62521303423284 L 35.493666837804525,165.5857788364139 L 47.38283378156222,163.2426607351854 L 46.99610927470876,161.2804058700369 L 58.910686101980595,159.02328900417558 L 59.28294834599937,160.98833883094284 L 71.19991390505645,158.86383491948243 L 70.84887821853486,156.89488241960126 L 82.81410102769468,154.92481985771926 L 83.1390243540721,156.8982495706748 L 95.10232151777741,155.13831759547068 L 94.8111847497576,153.15962121090155 L 106.84710170704058,151.68290930446716 L 107.09065957007576,153.6680238017579 L 119.1017359828825,152.60763573914053 L 118.92566151454515,150.61540136999625 L 131.03948084575057,150.08765930847204 L 131.1265288607346,152.08576407126284 L 143.1794603438566,151.9999477389387 L 143.16500207584082,150 L 155.28914121998451,150.21924366113194 L 155.25298066118464,152.21891673790904 L 167.33352464376918,152.66487572189067 L 167.40724697303074,150.66623492920974 L 179.51728935613895,151.29675706642067 L 179.4132981036058,153.29405169150647 L 191.4933938799085,154.05789520884667 L 191.6195845926574,152.06188020288704 L 203.7153783616865,152.92414367589646 L 203.57316679441232,154.9190812363563 L 215.65461699979429,155.840822562498 L 215.8067586224595,153.8466177268172 L 227.89795475054578,154.7715108657663 L 227.7454141613677,156.76568522340233 L 239.8740749909795,157.53103257628447 L 239.9999999999999,155.53500078993855 L 240,190.53500078993858  Z"/>
<g>
<circle fill="none" stroke="black" cx="2" cy="175" r="0.5" />
<circle fill="none" stroke="black" cx="11.825226133783053" cy="172.77912857561648" r="0.5" />
<circle fill="none" stroke="black" cx="23.6865877683329" cy="170.39008308732653" r="0.5" />
<circle fill="none" stroke="black" cx="35.547852637278154" cy="168.00055608953772" r="0.5" />
<circle fill="none" stroke="black" cx="47.41964172215091" cy="165.66399773571257" r="0.5" />
<circle fill="none" stroke="black" cx="59.308121972554396" cy="163.41394207210882" r="0.5" />
<circle fill="none" stroke="black" cx="71.22069132315912" cy="161.2953328562134" r="0.5" />
<circle fill="none" stroke="black" cx="83.16037307512435" cy="159.33606707367704" r="0.5" />
<circle fill="none" stroke="black" cx="95.13193132419667" cy="157.58278126120186" r="0.5" />
<circle fill="none" stroke="black" cx="107.14167292829761" cy="156.11406896397546" r="0.5" />
<circle fill="none" stroke="black" cx="119.19446305618847" cy="155.06028411142614" r="0.5" />
<circle fill="none" stroke="black" cx="131.28198075676994" cy="154.54576417332757" r="0.5" />
<circle fill="none" stroke="black" cx="143.3806414523869" cy="154.46617366800263" r="0.5" />
<circle fill="none" stroke="black" cx="155.47774232177267" cy="154.6899443322916" r="0.5" />
<circle fill="none" stroke="black" cx="167.56878826135383" cy="155.13908468464734" r="0.5" />
<circle fill="none" stroke="black" cx="179.65185602286604" cy="155.769276068289" r="0.5" />
<circle fill="none" stroke="black" cx="191.72716320935615" cy="156.53410929841698" r="0.5" />
<circle fill="none" stroke="black" cx="203.79602083507166" cy="157.39515085952254" r="0.5" />
<circle fill="none" stroke="black" cx="215.86050789186567" cy="158.31578507154944" r="0.5" />
<circle fill="none" stroke="black" cx="227.92483446972844" cy="159.23852751953393" r="0.5" />
<circle fill="none" stroke="black" cx="238" cy="160" r="0.5" />
</g>
</svg>
