<svg viewBox="-10 -10 260 140" xmlns="http://www.w3.org/2000/svg">
<path fill="none" stroke="red" d="M 240,10 L 240.2215875321572,8.012313162092056 L 228.22103335167043,6.674490476314363 L 227.99832022233954,8.66205150984859 L 215.99705963516607,7.317268503848519 L 216.17810263026217,5.325479500483296 L 204.10025162188026,4.228330465681746 L 203.97045235689353,6.224114058862356 L 191.91975952326666,5.440376243935811 L 191.99318179428823,3.4417244057913994 L 179.88692400130128,2.997355170933111 L 179.85168586971784,4.997044715358072 L 167.77706778135908,4.784268196021129 L 167.79821033456582,2.7843799510324496 L 155.71141385154272,2.6566300547328745 L 155.7012456450985,4.656604206460268 L 143.62489147116827,4.595205981774338 L 143.6256766445028,2.5952061358986356 L 131.53831419377894,2.5904902314519074 L 131.54837947643233,4.590464903812812 L 119.47202087699772,4.65124165484213 L 119.45185817330479,2.6513432910796633 L 107.36392400779464,2.773248483679854 L 107.39613228644359,4.772989123559554 L 95.32120404648239,4.967470670647677 L 95.27138406069936,2.9680912746808734 L 83.17723634777573,3.269564842907175 L 83.24848356518643,5.268295398537731 L 71.17976771935088,5.698499669600681 L 71.06565863499394,3.7017575438199826 L 58.9376228207148,4.396137703838285 L 59.12334976591339,6.3874954069713015 L 47.099653806403836,7.508903337371207 L 46.846207568449124,5.525027080023838 L 34.80877232393972,7.063734823113083 L 35.12100313156397,9.039212467322278 L 23.19290326116829,10.924488297637831 L 22.84116450201809,8.955661274938407 L 10.964477187302045,11.077513166100342 L 11.304722903120469,13.048358886309614 L 0,15 L -0.34024571581842394,13.029154279790728 L 0.3682579855748467,28.034195824589755 L 11.691138705038455,30.155333472384072 L 11.322880719463608,32.12113764779432 L 23.21104856802594,34.513597469615874 L 23.605631769450987,32.552907770261804 L 35.493666837804525,34.949221953524656 L 35.09846848846823,36.90978775570572 L 46.99610927470876,39.25459491990165 L 47.38283378156222,37.292340054753154 L 59.28294834599937,39.54666195899571 L 58.910686101980595,41.511711785763 L 70.84887821853486,43.64011837033731 L 71.19991390505645,41.671165870456136 L 83.1390243540721,43.636751219263765 L 82.81410102769468,45.610180932219315 L 94.8111847497576,47.375379579037016 L 95.10232151777741,45.39668319446788 L 107.09065957007576,46.86697698818068 L 106.84710170704058,48.85209148547139 L 118.92566151454515,49.91959941994231 L 119.1017359828825,47.927365050798024 L 131.1265288607346,48.44923671867572 L 131.03948084575057,50.44734148146654 L 143.16500207584082,50.535000789938564 L 143.1794603438566,48.53505305099987 L 155.25298066118464,48.31608405202952 L 155.28914121998451,50.31575712880664 L 167.40724697303074,49.868765860728814 L 167.33352464376918,47.870125068047884 L 179.4132981036058,47.24094909843211 L 179.51728935613895,49.238243723517904 L 191.6195845926574,48.47312058705151 L 191.4933938799085,46.477105581091905 L 203.57316679441232,45.61591955358226 L 203.7153783616865,47.61085711404209 L 215.8067586224595,46.688383063121385 L 215.65461699979429,44.69417822744056 L 227.7454141613677,43.76931556653623 L 227.89795475054578,45.76348992417229 L 239.9999999999999,45.00000000000001 L 239.8740749909795,43.003968213654105  Z"/>
<path fill="none" stroke="blue" d="M 0,57.944510558486655 L 0,77.94451055848666 L 11.322880719463608,80.06564820628097 L 11.691138705038455,78.09984403087073 L 23.605631769450987,80.49741832874847 L 23.21104856802594,82.45810802810253 L 35.09846848846823,84.85429831419238 L 35.493666837804525,82.89373251201131 L 47.38283378156222,85.23685061323981 L 46.99610927470876,87.1991054783883 L 58.910686101980595,89.45622234424965 L 59.28294834599937,87.49117251748237 L 71.19991390505645,89.61567642894279 L 70.84887821853486,91.58462892882397 L 82.81410102769468,93.55469149070598 L 83.1390243540721,91.58126177775043 L 95.10232151777741,93.34119375295454 L 94.8111847497576,95.31989013752367 L 106.84710170704058,96.79660204395805 L 107.09065957007576,94.81148754666734 L 119.1017359828825,95.87187560928467 L 118.92566151454515,97.86410997842896 L 131.03948084575057,98.39185203995319 L 131.1265288607346,96.39374727716238 L 143.1794603438566,96.47956360948652 L 143.16500207584082,98.47951134842522 L 155.28914121998451,98.2602676872933 L 155.25298066118464,96.26059461051616 L 167.33352464376918,95.81463562653454 L 167.40724697303074,97.81327641921547 L 179.51728935613895,97.18275428200457 L 179.4132981036058,95.18545965691877 L 191.4933938799085,94.42161613957856 L 191.6195845926574,96.41763114553817 L 203.7153783616865,95.55536767252875 L 203.57316679441232,93.56043011206891 L 215.65461699979429,92.63868878592722 L 215.8067586224595,94.63289362160805 L 227.89795475054578,93.70800048265895 L 227.7454141613677,91.71382612502288 L 239.8740749909795,90.94847877214076 L 239.9999999999999,92.94451055848666 L 240,57.944510558486655  Z"/>
</svg>
