<svg viewBox="-50 -50 1250 1250" xmlns="http://www.w3.org/2000/svg">
<rect fill="none" stroke="green" x="0" y="0" width="1200" height="600" />
<rect fill="none" stroke="green" x="0" y="600" width="1200" height="600" />
<path fill="none" stroke="red" d="M 0,100 L 107.32791603326233,126.60140409610983 L 108.53077883861769,121.74824831131447 L 228.0298944492962,150.0611559203853 L 226.8771477660884,154.92645910563013 L 347.3734653031221,178.8760458964762 L 348.3481878921075,173.97197453947888 L 469.3169153119669,194.56862926703798 L 468.47759559771055,199.49768013077033 L 590.8551594269445,209.66898617489917 L 591.269302150952,204.6861671129472 L 713.6047990690533,202.95699608710848 L 713.6745075322985,207.95651013650885 L 836.2864008761082,200.21349202055808 L 835.9712754691542,195.22343230369174 L 958.2141910987841,184.30782734765356 L 958.6588251321532,189.28801816491847 L 1080.3812119316874,172.9533205146939 L 1079.7161916206417,167.99774305228885 L 1198.8622203133814,140.13117494823257 L 1199.9999999999998,145.00000000000006 L 1200,25 L 1177.5749969482422,24.73156213760376 L 1150.5999755859375,24.427499771118164 L 1119.5249938964844,24.08968687057495 L 1084.800033569336,23.71999979019165 L 1046.875,23.3203125 L 1006.199951171875,22.89249897003174 L 963.2249450683594,22.438437938690186 L 918.4000396728516,21.96000099182129 L 872.1749877929688,21.459062099456787 L 825,20.9375 L 777.3249816894531,20.397186279296875 L 729.5999908447266,19.839999675750732 L 682.2750091552734,19.26781177520752 L 635.7999801635742,18.68250012397766 L 590.625,18.0859375 L 547.2000122070312,17.480000257492065 L 505.9749984741211,16.866562366485596 L 467.40001678466797,16.24750018119812 L 431.92501068115234,15.624687671661377 L 400,15 L 370.49999237060547,14.34499979019165 L 342.00000762939453,13.634999990463257 L 314.50000762939453,12.877500057220459 L 288.0000114440918,12.080000638961792 L 262.5,11.25 L 237.99999237060547,10.394999980926514 L 214.4999885559082,9.522499442100525 L 192.00000762939453,8.640000224113464 L 170.5000114440918,7.754999995231628 L 150,6.875 L 130.50000190734863,6.007499694824219 L 111.99999809265137,5.15999972820282 L 94.49999809265137,4.339999854564667 L 78.00000190734863,3.555000126361847 L 62.5,2.8125 L 48.00000190734863,2.120000123977661 L 34.50000047683716,1.48499995470047 L 22.000000476837158,0.9149999916553497 L 10.499999523162842,0.41749998927116394 L 0,0  Z"/>
<g>
<circle fill="none" stroke="black" cx="15.741477878054466" cy="88.1166758339015" r="1.5" />
<circle fill="none" stroke="black" cx="98.80361498734001" cy="108.70376590323454" r="1.5" />
<circle fill="none" stroke="black" cx="242.061493925538" cy="142.32003768200093" r="1.5" />
<circle fill="none" stroke="black" cx="338.0374546775851" cy="161.39601152791982" r="1.5" />
<circle fill="none" stroke="black" cx="482.17707142461273" cy="185.25356592983226" r="1.5" />
<circle fill="none" stroke="black" cx="579.640539944087" cy="193.35415835392394" r="1.5" />
<circle fill="none" stroke="black" cx="725.2042806036023" cy="191.867503643424" r="1.5" />
<circle fill="none" stroke="black" cx="822.8658753630804" cy="185.70011256224333" r="1.5" />
<circle fill="none" stroke="black" cx="969.0527078550286" cy="172.42772117498828" r="1.5" />
<circle fill="none" stroke="black" cx="1065.9972073425379" cy="159.41812507999228" r="1.5" />
</g>
<path fill="none" stroke="red" d="M 1200,484.66898617489915 L 1200.554978014735,489.6380906619431 L 1079.46024643772,503.1597169616435 L 1079.0750403055526,498.17457742139584 L 957.77080336322,507.54786287325084 L 957.903979708783,512.5460889646739 L 836.1786329591273,515.78851395928 L 836.1409794178929,510.788655740207 L 714.4649226114107,511.70498860834914 L 714.4514386358197,516.7049704265562 L 592.7172048880411,516.376373174056 L 592.7858023694364,511.3768437576462 L 471.1180929083671,509.7074669541462 L 470.96017183634456,514.70497242538 L 349.1086516404313,510.84889384083004 L 349.50222657330295,505.86440803262326 L 228.22728207893897,496.2885400344044 L 227.50281677236734,501.23577663876983 L 106.98090305631611,483.5846325401832 L 107.84803216438291,478.66039786767385 L 0,459.66898617489915 L -0.8671291080667962,464.59322084740853 L 1.2028628053553587,339.5221419596945 L 108.53077883861769,312.9207378635847 L 107.32791603326233,308.06758207878937 L 226.8771477660884,279.74252706926904 L 228.0298944492962,284.6078302545139 L 348.3481878921075,260.69701163542027 L 347.3734653031221,255.79294027842298 L 468.47759559771055,235.17130604412884 L 469.3169153119669,240.10035690786117 L 591.269302150952,229.98281906195194 L 590.8551594269445,225 L 713.6745075322985,226.71247603839032 L 713.6047990690533,231.7119900877907 L 835.9712754691542,239.44555387120744 L 836.2864008761082,234.45549415434107 L 958.6588251321532,245.38096800998068 L 958.2141910987841,250.36115882724562 L 1079.7161916206417,266.6712431226103 L 1080.3812119316874,261.7156656602053 L 1199.9999999999998,289.6689861748991 L 1198.8622203133814,294.53781122666663  Z"/>
<g>
<circle fill="none" stroke="black" cx="122.94941404599774" cy="319.7816249265043" r="1.5" />
<circle fill="none" stroke="black" cx="218.17212985259968" cy="297.220303333023" r="1.5" />
<circle fill="none" stroke="black" cx="362.2140516052221" cy="268.4817935839791" r="1.5" />
<circle fill="none" stroke="black" cx="458.67292758114877" cy="252.0567579209668" r="1.5" />
<circle fill="none" stroke="black" cx="603.1448191607101" cy="240.17281330631405" r="1.5" />
<circle fill="none" stroke="black" cx="700.9665970190622" cy="241.53674702847866" r="1.5" />
<circle fill="none" stroke="black" cx="847.4029758191631" cy="250.5076516895587" r="1.5" />
<circle fill="none" stroke="black" cx="944.8744459888836" cy="259.2099553783526" r="1.5" />
<circle fill="none" stroke="black" cx="1089.1399355012513" cy="279.16659003205353" r="1.5" />
<circle fill="none" stroke="black" cx="1184.414598310726" cy="301.4310121136558" r="1.5" />
<circle fill="none" stroke="black" cx="122.38951959501154" cy="472.66583557266335" r="1.5" />
<circle fill="none" stroke="black" cx="218.03258648774" cy="486.6716512065359" r="1.5" />
<circle fill="none" stroke="black" cx="362.46975346745495" cy="498.30267855063545" r="1.5" />
<circle fill="none" stroke="black" cx="459.0980924463504" cy="501.3561321120457" r="1.5" />
<circle fill="none" stroke="black" cx="605.3262088417267" cy="503.44659249365884" r="1.5" />
<circle fill="none" stroke="black" cx="702.0054199926651" cy="503.70731746640763" r="1.5" />
<circle fill="none" stroke="black" cx="848.2370156097614" cy="502.4970208536871" r="1.5" />
<circle fill="none" stroke="black" cx="944.8757090979732" cy="499.9221097145463" r="1.5" />
<circle fill="none" stroke="black" cx="1089.8328674789573" cy="488.91580317508317" r="1.5" />
<circle fill="none" stroke="black" cx="1185.9123047381847" cy="478.18510200226206" r="1.5" />
</g>
<path fill="none" stroke="red" d="M 1200.554978014735,570.030895512956 L 1200,575 L 1079.0750403055526,561.4944087535034 L 1079.46024643772,556.5092692132557 L 957.903979708783,547.1228972102253 L 957.77080336322,552.1211233016484 L 836.1409794178929,548.8803304346923 L 836.1786329591273,543.8804722156192 L 714.4514386358197,542.964015748343 L 714.4649226114107,547.9639975665501 L 592.7858023694364,548.292142417253 L 592.7172048880411,543.2926130008432 L 470.96017183634456,544.9640137495193 L 471.1180929083671,549.961519220753 L 349.50222657330295,553.8045781422759 L 349.1086516404313,548.8200923340692 L 227.50281677236734,558.4332095361292 L 228.22728207893897,563.3804461404948 L 107.84803216438291,581.0085883072253 L 106.98090305631611,576.084353634716 L -0.8671291080667962,595.0757653274907 L 0,600 L 1.2028628053553587,720.1468442152045 L 108.53077883861769,746.7482483113145 L 107.32791603326233,751.60140409611 L 226.8771477660884,779.9264591056301 L 228.0298944492962,775.0611559203853 L 348.3481878921075,798.9719745394789 L 347.3734653031221,803.8760458964762 L 468.47759559771055,824.4976801307703 L 469.3169153119669,819.568629267038 L 591.269302150952,829.6861671129471 L 590.8551594269445,834.6689861748991 L 713.6745075322985,832.9565101365088 L 713.6047990690533,827.9569960871085 L 835.9712754691542,820.2234323036918 L 836.2864008761082,825.2134920205581 L 958.6588251321532,814.2880181649184 L 958.2141910987841,809.3078273476535 L 1079.7161916206417,792.9977430522888 L 1080.3812119316874,797.9533205146938 L 1199.9999999999998,770 L 1198.8622203133814,765.1311749482327  Z"/>
<g>
<circle fill="none" stroke="black" cx="14.91197400547377" cy="605.568896995704" r="1.5" />
<circle fill="none" stroke="black" cx="98.13883280730992" cy="590.9131308432633" r="1.5" />
<circle fill="none" stroke="black" cx="241.86922139807095" cy="570.313981981279" r="1.5" />
<circle fill="none" stroke="black" cx="338.2217368514009" cy="562.7059886474184" r="1.5" />
<circle fill="none" stroke="black" cx="483.8227088935775" cy="557.7526295148367" r="1.5" />
<circle fill="none" stroke="black" cx="580.4927712725981" cy="556.4262401183134" r="1.5" />
<circle fill="none" stroke="black" cx="726.8516075353904" cy="556.0217218251979" r="1.5" />
<circle fill="none" stroke="black" cx="823.5283732465075" cy="556.7497869871687" r="1.5" />
<circle fill="none" stroke="black" cx="969.078033817337" cy="561.0035730011527" r="1.5" />
<circle fill="none" stroke="black" cx="1065.4565730584313" cy="568.4508277921708" r="1.5" />
<circle fill="none" stroke="black" cx="122.94941404599774" cy="739.5563474232939" r="1.5" />
<circle fill="none" stroke="black" cx="218.17212985259968" cy="762.1176690167754" r="1.5" />
<circle fill="none" stroke="black" cx="362.2140516052221" cy="790.8561787658192" r="1.5" />
<circle fill="none" stroke="black" cx="458.67292758114877" cy="807.2812144288315" r="1.5" />
<circle fill="none" stroke="black" cx="603.1448191607101" cy="819.1651590434843" r="1.5" />
<circle fill="none" stroke="black" cx="700.9665970190622" cy="817.8012253213196" r="1.5" />
<circle fill="none" stroke="black" cx="847.4029758191631" cy="808.8303206602395" r="1.5" />
<circle fill="none" stroke="black" cx="944.8744459888836" cy="800.1280169714457" r="1.5" />
<circle fill="none" stroke="black" cx="1089.1399355012513" cy="780.1713823177448" r="1.5" />
<circle fill="none" stroke="black" cx="1184.414598310726" cy="757.9069602361426" r="1.5" />
</g>
<path fill="none" stroke="red" d="M 0,959.6689861748991 L 107.32791603326233,933.0675820787893 L 108.53077883861769,937.9207378635847 L 228.0298944492962,909.6078302545139 L 226.8771477660884,904.742527069269 L 347.3734653031221,880.792940278423 L 348.3481878921075,885.6970116354203 L 469.3169153119669,865.1003569078612 L 468.47759559771055,860.1713060441289 L 590.8551594269445,850 L 591.269302150952,854.9828190619519 L 713.6047990690533,856.7119900877907 L 713.6745075322985,851.7124760383904 L 836.2864008761082,859.4554941543411 L 835.9712754691542,864.4455538712075 L 958.2141910987841,875.3611588272456 L 958.6588251321532,870.3809680099806 L 1080.3812119316874,886.7156656602053 L 1079.7161916206417,891.6712431226102 L 1198.8622203133814,919.5378112266667 L 1199.9999999999998,914.6689861748991 L 1200,1034.6689861748991 L 1177.5749969482422,1034.9374240372954 L 1150.5999755859375,1035.241486403781 L 1119.5249938964844,1035.5792993043242 L 1084.800033569336,1035.9489863847075 L 1046.875,1036.3486736748991 L 1006.199951171875,1036.7764872048674 L 963.2249450683594,1037.230548236209 L 918.4000396728516,1037.7089851830779 L 872.1749877929688,1038.2099240754424 L 825,1038.7314861748991 L 777.3249816894531,1039.2717998956023 L 729.5999908447266,1039.8289864991484 L 682.2750091552734,1040.4011743996916 L 635.7999801635742,1040.9864860509215 L 590.625,1041.5830486748991 L 547.2000122070312,1042.188985917407 L 505.9749984741211,1042.8024238084136 L 467.40001678466797,1043.421485993701 L 431.92501068115234,1044.0442985032378 L 400,1044.6689861748991 L 370.49999237060547,1045.3239863847075 L 342.00000762939453,1046.033986184436 L 314.50000762939453,1046.7914861176787 L 288.0000114440918,1047.5889855359374 L 262.5,1048.4189861748991 L 237.99999237060547,1049.2739861939726 L 214.4999885559082,1050.1464867327986 L 192.00000762939453,1051.0289859507857 L 170.5000114440918,1051.9139861796675 L 150,1052.7939861748991 L 130.50000190734863,1053.661486480075 L 111.99999809265137,1054.5089864466963 L 94.49999809265137,1055.3289863203345 L 78.00000190734863,1056.1139860485373 L 62.5,1056.8564861748991 L 48.00000190734863,1057.5489860509215 L 34.50000047683716,1058.1839862201987 L 22.000000476837158,1058.7539861832438 L 10.499999523162842,1059.251486185628 L 0,1059.6689861748991  Z"/>
<g>
<circle fill="none" stroke="black" cx="15.741477878054472" cy="971.2212965158969" r="1.5" />
<circle fill="none" stroke="black" cx="98.80361498734001" cy="950.6342064465638" r="1.5" />
<circle fill="none" stroke="black" cx="242.061493925538" cy="917.0179346677974" r="1.5" />
<circle fill="none" stroke="black" cx="338.0374546775851" cy="897.9419608218785" r="1.5" />
<circle fill="none" stroke="black" cx="482.17707142461273" cy="874.0844064199661" r="1.5" />
<circle fill="none" stroke="black" cx="579.640539944087" cy="865.9838139958744" r="1.5" />
<circle fill="none" stroke="black" cx="725.2042806036023" cy="867.4704687063743" r="1.5" />
<circle fill="none" stroke="black" cx="822.8658753630804" cy="873.637859787555" r="1.5" />
<circle fill="none" stroke="black" cx="969.0527078550286" cy="886.91025117481" r="1.5" />
<circle fill="none" stroke="black" cx="1065.9972073425379" cy="899.919847269806" r="1.5" />
</g>
</svg>
