<svg viewBox="-10 -10 260 140" xmlns="http://www.w3.org/2000/svg">
<path title="edge" fill="none" stroke="red" d="M 240,10 L 240.2215875321572,8.012313162092056 L 228.22103335167043,6.674490476314363 L 227.99832022233954,8.66205150984859 L 215.99705963516607,7.317268503848519 L 216.17810263026217,5.325479500483296 L 204.10025162188026,4.228330465681746 L 203.97045235689353,6.224114058862356 L 191.91975952326666,5.440376243935811 L 191.99318179428823,3.4417244057913994 L 179.88692400130128,2.997355170933111 L 179.85168586971784,4.997044715358072 L 167.77706778135908,4.784268196021129 L 167.79821033456582,2.7843799510324496 L 155.71141385154272,2.6566300547328745 L 155.7012456450985,4.656604206460268 L 143.62489147116827,4.595205981774338 L 143.6256766445028,2.5952061358986356 L 131.53831419377894,2.5904902314519074 L 131.54837947643233,4.590464903812812 L 119.47202087699772,4.65124165484213 L 119.45185817330479,2.6513432910796633 L 107.36392400779464,2.773248483679854 L 107.39613228644359,4.772989123559554 L 95.32120404648239,4.967470670647677 L 95.27138406069936,2.9680912746808734 L 83.17723634777573,3.269564842907175 L 83.24848356518643,5.268295398537731 L 71.17976771935088,5.698499669600681 L 71.06565863499394,3.7017575438199826 L 58.9376228207148,4.396137703838285 L 59.12334976591339,6.3874954069713015 L 47.099653806403836,7.508903337371207 L 46.846207568449124,5.525027080023838 L 34.80877232393972,7.063734823113083 L 35.12100313156397,9.039212467322278 L 23.19290326116829,10.924488297637831 L 22.84116450201809,8.955661274938407 L 10.964477187302045,11.077513166100342 L 11.304722903120469,13.048358886309614 L 0,15 L 0,30 L 6.401202201843262,31.160781383514404 L 6.758058378599438,29.19287547389602 L 14.901517281077085,30.794950608129614 L 14.515401840209961,32.757325410842896 L 24.072126388549805,34.688204288482666 L 24.468210820828652,32.72781730563812 L 35.19630333835624,34.891466036309644 L 34.8009033203125,36.851991176605225 L 46.43125534057617,39.147257804870605 L 46.81848931942322,37.18510341603514 L 59.06536189940725,39.5076002355784 L 58.69271469116211,41.47257709503174 L 71.31480407714844,43.726521492004395 L 71.6663853335212,41.757666337309836 L 84.35016795836778,43.83393746836271 L 84.02704620361328,45.80766296386719 L 96.55897521972656,47.61457443237305 L 96.84439292444208,45.63504501005194 L 108.87541633262494,47.05971891932145 L 108.64012145996094,49.04582977294922 L 120,50 L 120.16740003644183,48.00701800615278 L 131.44182016725986,48.4674939030447 L 131.35987854003906,50.4658145904541 L 143.44102478027344,50.54470252990723 L 143.4540841797865,48.54474516734062 L 155.93458410745578,48.304651087838835 L 155.9729461669922,50.304283142089844 L 168.68521118164062,49.812171936035156 L 168.6078460724638,47.8136688362422 L 181.20029183644883,47.13885198244857 L 181.30728149414062,49.13598823547363 L 193.56874084472656,48.34335136413574 L 193.43972098862878,46.34751723356965 L 205.05477112206503,45.507093002185776 L 205.1990966796875,47.50187873840332 L 215.92787170410156,46.6791877746582 L 215.77495902061858,44.68504191458928 L 225.33095583600482,43.94880919280762 L 225.48458862304688,45.94289970397949 L 233.5988006591797,45.36063098907471 L 233.45565051262807,43.365760558309276 L 239.8875023219916,43.00316643847247 L 240,45  Z"/>
<path fill="none" stroke="blue" d="M 0,57.95421229845532 L 0,77.95421229845532 L 11.322880719463608,80.07534994624964 L 11.691138705038455,78.10954577083939 L 23.605631769450987,80.50712006871711 L 23.21104856802594,82.46780976807119 L 35.09846848846823,84.86400005416104 L 35.493666837804525,82.90343425197997 L 47.38283378156222,85.24655235320847 L 46.99610927470876,87.20880721835697 L 58.910686101980595,89.46592408421832 L 59.28294834599937,87.50087425745103 L 71.19991390505645,89.62537816891145 L 70.84887821853486,91.59433066879262 L 82.81410102769468,93.56439323067463 L 83.1390243540721,91.59096351771908 L 95.10232151777741,93.3508954929232 L 94.8111847497576,95.32959187749233 L 106.84710170704058,96.80630378392671 L 107.09065957007576,94.821189286636 L 119.1017359828825,95.88157734925335 L 118.92566151454515,97.87381171839763 L 131.03948084575057,98.40155377992185 L 131.1265288607346,96.40344901713104 L 143.1794603438566,96.4892653494552 L 143.16500207584082,98.48921308839388 L 155.28914121998451,98.26996942726196 L 155.25298066118464,96.27029635048484 L 167.33352464376918,95.8243373665032 L 167.40724697303074,97.82297815918413 L 179.51728935613895,97.19245602197321 L 179.4132981036058,95.19516139688743 L 191.4933938799085,94.43131787954722 L 191.6195845926574,96.42733288550683 L 203.7153783616865,95.56506941249741 L 203.57316679441232,93.57013185203758 L 215.65461699979429,92.64839052589588 L 215.8067586224595,94.6425953615767 L 227.89795475054578,93.71770222262761 L 227.7454141613677,91.72352786499155 L 239.8740749909795,90.95818051210942 L 239.9999999999999,92.95421229845533 L 240,57.95421229845532  Z"/>
<rect fill="black" x="0" y="15" width="1" height="1"/>
<rect fill="black" x="11.305231271171131" y="13.048268064340355" width="1" height="1"/>
<rect fill="black" x="23.193287376510348" y="10.924427586931323" width="1" height="1"/>
<rect fill="black" x="35.12150168851278" y="9.039148775152661" width="1" height="1"/>
<rect fill="black" x="47.1004288103794" y="7.508831055469933" width="1" height="1"/>
<rect fill="black" x="59.12453022701199" y="6.387427946414758" width="1" height="1"/>
<rect fill="black" x="71.18114172951567" y="5.6984506913126065" width="1" height="1"/>
<rect fill="black" x="83.24975869834067" y="5.268263625120568" width="1" height="1"/>
<rect fill="black" x="95.32229323943562" y="4.967453127857657" width="1" height="1"/>
<rect fill="black" x="107.39700889452365" y="4.772980285715945" width="1" height="1"/>
<rect fill="black" x="119.47267686452095" y="4.6512383534504025" width="1" height="1"/>
<rect fill="black" x="131.54880557691553" y="4.590465071094194" width="1" height="1"/>
<rect fill="black" x="143.62508628267136" y="4.5952069722289295" width="1" height="1"/>
<rect fill="black" x="155.70121184604426" y="4.656604034620167" width="1" height="1"/>
<rect fill="black" x="167.77681869388326" y="4.78426556270138" width="1" height="1"/>
<rect fill="black" x="179.85122578303412" y="4.997036607802004" width="1" height="1"/>
<rect fill="black" x="191.91936726953998" y="5.440361834142729" width="1" height="1"/>
<rect fill="black" x="203.9701902132146" y="6.224097009891235" width="1" height="1"/>
<rect fill="black" x="215.99689322283308" y="7.3172533778551845" width="1" height="1"/>
<rect fill="black" x="227.99806698379066" y="8.662023133588068" width="1" height="1"/>
<rect fill="black" x="240" y="10" width="1" height="1"/>
</svg>
