<svg viewBox="-10 -10 250 240" xmlns="http://www.w3.org/2000/svg">
<path fill="none" stroke="red" d="M 0,0 L 0,20 L 11.247210545347365,22.7732240746611 L 11.726010438257807,20.831381994946856 L 23.563078678950763,23.777574069821192 L 23.080024579253003,25.71836224393118 L 34.93200292969323,28.585133819505792 L 35.402206000685084,26.64119218662948 L 47.264298392108685,29.360460201072826 L 46.817387019210976,31.30988837999471 L 58.76223372167613,33.75915867945359 L 59.163971743144124,31.799922460385822 L 71.11554275568042,34.0499164013976 L 70.7454820463369,36.01538201325658 L 82.7413499204777,38.20303863000425 L 83.10016699990715,36.23548931588027 L 95.09674963152091,38.075306448286625 L 94.79344172447497,40.05217374619092 L 106.91778281052117,41.3410081081769 L 107.12919448000767,39.35221322031015 L 119.19692233667679,39.96985262237844 L 119.0942027374928,41.96721305153074 L 131.28655142888067,41.96157195944572 L 131.28562607944653,39.96157217351362 L 143.40788156212426,39.56346638170487 L 143.473356252364,41.562394360632084 L 155.64732963450655,40.8705298519341 L 155.53384985437685,38.87375186239653 L 167.66726552773247,38.00572287760184 L 167.8099464079924,40.000626927025834 L 179.96070937769164,38.978042330174745 L 179.79298617303954,36.98508750714909 L 191.9097568834189,35.83030513592864 L 192.0994860619659,37.82128550720503 L 204.21883420700576,36.48028323149373 L 203.99887721012576,34.49241529837455 L 215.94228955837562,32.58177331485876 L 216.2578417055445,34.556723147744925 L 228.16234923180068,31.922295028091128 L 227.73021077117562,29.96953893711391 L 239.52066107264645,27.058290909347246 L 239.99999999999994,29.000000000000014 L 240,0  Z"/>
<g>
<circle fill="none" stroke="black" cx="2" cy="14.967213051530742" r="0.5" />
<circle fill="none" stroke="black" cx="11.746773840835287" cy="17.865557956832475" r="0.5" />
<circle fill="none" stroke="black" cx="23.553725632174974" cy="20.80237829198677" r="0.5" />
<circle fill="none" stroke="black" cx="35.3806052377417" cy="23.65759833921304" r="0.5" />
<circle fill="none" stroke="black" cx="47.24101713508774" cy="26.36988076412482" r="0.5" />
<circle fill="none" stroke="black" cx="59.16132319640742" cy="28.80402551570419" r="0.5" />
<circle fill="none" stroke="black" cx="71.11835039001916" cy="31.053065337825156" r="0.5" />
<circle fill="none" stroke="black" cx="83.08841447682505" cy="33.23111150631253" r="0.5" />
<circle fill="none" stroke="black" cx="95.11635784867771" cy="35.05835844085311" r="0.5" />
<circle fill="none" stroke="black" cx="107.21529449077795" cy="36.32778698464857" r="0.5" />
<circle fill="none" stroke="black" cx="119.36507476300591" cy="36.94423079944319" r="0.5" />
<circle fill="none" stroke="black" cx="131.53044700755888" cy="36.92390099773411" r="0.5" />
<circle fill="none" stroke="black" cx="143.69002983160124" cy="36.521125473845736" r="0.5" />
<circle fill="none" stroke="black" cx="155.83665065429403" cy="35.825222250837854" r="0.5" />
<circle fill="none" stroke="black" cx="167.97210688084758" cy="34.95549558294597" r="0.5" />
<circle fill="none" stroke="black" cx="180.09566347933256" cy="33.93283213657968" r="0.5" />
<circle fill="none" stroke="black" cx="192.20738086983616" cy="32.77784228176377" r="0.5" />
<circle fill="none" stroke="black" cx="204.29953896253826" cy="31.437554291305815" r="0.5" />
<circle fill="none" stroke="black" cx="216.31096191527934" cy="29.513121636464746" r="0.5" />
<circle fill="none" stroke="black" cx="228.1886938882563" cy="26.883133368726448" r="0.5" />
<circle fill="none" stroke="black" cx="237.99999999999991" cy="23.967213051530763" r="0.5" />
</g>
<path fill="none" stroke="blue" d="M 240,96.96721305153073 L 240.2215875321572,98.95489988943868 L 228.22103335167043,100.29272257521637 L 227.99832022233954,98.30516154168215 L 215.99705963516607,99.64994454768222 L 216.17810263026217,101.64173355104745 L 204.10025162188026,102.738882585849 L 203.97045235689353,100.7430989926684 L 191.91975952326666,101.52683680759493 L 191.99318179428823,103.52548864573934 L 179.88692400130128,103.96985788059763 L 179.85168586971784,101.97016833617266 L 167.77706778135908,102.18294485550962 L 167.79821033456582,104.1828331004983 L 155.71141385154272,104.31058299679788 L 155.7012456450985,102.31060884507048 L 143.62489147116827,102.3720070697564 L 143.6256766445028,104.37200691563211 L 131.53831419377894,104.37672282007884 L 131.54837947643233,102.37674814771793 L 119.47202087699772,102.31597139668861 L 119.45185817330479,104.31586976045108 L 107.36392400779464,104.19396456785088 L 107.39613228644359,102.1942239279712 L 95.32120404648239,101.99974238088306 L 95.27138406069936,103.99912177684988 L 83.17723634777573,103.69764820862358 L 83.24848356518643,101.698917652993 L 71.17976771935088,101.26871338193007 L 71.06565863499394,103.26545550771075 L 58.9376228207148,102.57107534769246 L 59.12334976591339,100.57971764455944 L 47.099653806403836,99.45830971415953 L 46.846207568449124,101.4421859715069 L 34.80877232393972,99.90347822841767 L 35.12100313156397,97.92800058420846 L 23.19290326116829,96.04272475389291 L 22.84116450201809,98.01155177659234 L 10.964477187302045,95.8896998854304 L 11.304722903120469,93.91885416522112 L 0,91.96721305153073 L -0.34024571581842394,93.93805877174002 L 0.47879989291044367,68.909055131245 L 11.726010438257807,66.13583105658388 L 11.247210545347365,64.19398897686963 L 23.080024579253003,61.24885080759956 L 23.563078678950763,63.18963898170955 L 35.402206000685084,60.32602086490127 L 34.93200292969323,58.38207923202495 L 46.817387019210976,55.65732467153603 L 47.264298392108685,57.606752850457916 L 59.163971743144124,55.16729059114492 L 58.76223372167613,53.20805437207715 L 70.7454820463369,50.951831038274165 L 71.11554275568042,52.91729665013314 L 83.10016699990715,50.73172373565047 L 82.7413499204777,48.76417442152649 L 94.79344172447497,46.915039305339825 L 95.09674963152091,48.89190660324412 L 107.12919448000767,47.614999831220594 L 106.91778281052117,45.62620494335384 L 119.0942027374928,45 L 119.19692233667679,46.9973604291523 L 131.28562607944653,47.00564087801712 L 131.28655142888067,45.00564109208502 L 143.473356252364,45.40481869089866 L 143.40788156212426,47.40374666982587 L 155.53384985437685,48.09346118913421 L 155.64732963450655,46.09668319959664 L 167.8099464079924,46.96658612450491 L 167.66726552773247,48.9614901739289 L 179.79298617303954,49.98212554438165 L 179.96070937769164,47.989170721356 L 192.0994860619659,49.14592754432571 L 191.9097568834189,51.1369079156021 L 203.99887721012576,52.47479775315619 L 204.21883420700576,50.48692982003701 L 216.2578417055445,52.410489903785816 L 215.94228955837562,54.385439736671984 L 227.73021077117562,56.99767411441683 L 228.16234923180068,55.044918023439614 L 239.99999999999994,57.96721305153073 L 239.52066107264645,59.90892214218349  Z"/>
<g>
<circle fill="none" stroke="black" cx="2" cy="71.97701774791244" r="0.5" />
<circle fill="none" stroke="black" cx="11.746773840835287" cy="69.07867284261071" r="0.5" />
<circle fill="none" stroke="black" cx="23.553725632174974" cy="66.14185250745642" r="0.5" />
<circle fill="none" stroke="black" cx="35.3806052377417" cy="63.28663246023015" r="0.5" />
<circle fill="none" stroke="black" cx="47.24101713508774" cy="60.57435003531837" r="0.5" />
<circle fill="none" stroke="black" cx="59.16132319640742" cy="58.140205283739" r="0.5" />
<circle fill="none" stroke="black" cx="71.11835039001916" cy="55.89116546161803" r="0.5" />
<circle fill="none" stroke="black" cx="83.08841447682505" cy="53.71311929313066" r="0.5" />
<circle fill="none" stroke="black" cx="95.11635784867771" cy="51.88587235859007" r="0.5" />
<circle fill="none" stroke="black" cx="107.21529449077795" cy="50.61644381479462" r="0.5" />
<circle fill="none" stroke="black" cx="119.36507476300591" cy="50" r="0.5" />
<circle fill="none" stroke="black" cx="131.53044700755888" cy="50.02032980170908" r="0.5" />
<circle fill="none" stroke="black" cx="143.69002983160124" cy="50.42310532559745" r="0.5" />
<circle fill="none" stroke="black" cx="155.83665065429403" cy="51.119008548605336" r="0.5" />
<circle fill="none" stroke="black" cx="167.97210688084758" cy="51.98873521649722" r="0.5" />
<circle fill="none" stroke="black" cx="180.09566347933256" cy="53.011398662863506" r="0.5" />
<circle fill="none" stroke="black" cx="192.20738086983616" cy="54.16638851767942" r="0.5" />
<circle fill="none" stroke="black" cx="204.29953896253826" cy="55.506676508137375" r="0.5" />
<circle fill="none" stroke="black" cx="216.31096191527934" cy="57.431109162978444" r="0.5" />
<circle fill="none" stroke="black" cx="228.1886938882563" cy="60.061097430716735" r="0.5" />
<circle fill="none" stroke="black" cx="237.99999999999991" cy="62.97701774791243" r="0.5" />
<circle fill="none" stroke="black" cx="2" cy="89.37672282007884" r="0.5" />
<circle fill="none" stroke="black" cx="11.80634893746189" cy="91.42062293649707" r="0.5" />
<circle fill="none" stroke="black" cx="23.669202636182476" cy="93.53357773116022" r="0.5" />
<circle fill="none" stroke="black" cx="35.57260871493367" cy="95.40309254758904" r="0.5" />
<circle fill="none" stroke="black" cx="47.52685360690985" cy="96.91227875104802" r="0.5" />
<circle fill="none" stroke="black" cx="59.525140102032125" cy="98.01572072198415" r="0.5" />
<circle fill="none" stroke="black" cx="71.55513989477544" cy="98.69653691890004" r="0.5" />
<circle fill="none" stroke="black" cx="83.5973072118068" cy="99.11868624221444" r="0.5" />
<circle fill="none" stroke="black" cx="95.64325190723213" cy="99.416538570998" r="0.5" />
<circle fill="none" stroke="black" cx="107.69139662440544" cy="99.60731769617072" r="0.5" />
<circle fill="none" stroke="black" cx="119.74045449347025" cy="99.72758988738468" r="0.5" />
<circle fill="none" stroke="black" cx="131.78997529772803" cy="99.78721300441134" r="0.5" />
<circle fill="none" stroke="black" cx="143.83964382960778" cy="99.78081074475121" r="0.5" />
<circle fill="none" stroke="black" cx="155.88915050293744" cy="99.71882229200358" r="0.5" />
<circle fill="none" stroke="black" cx="167.93811494002986" cy="99.59004800355443" r="0.5" />
<circle fill="none" stroke="black" cx="179.98588018167027" cy="99.37700416941607" r="0.5" />
<circle fill="none" stroke="black" cx="192.02700163378793" cy="98.93101690858623" r="0.5" />
<circle fill="none" stroke="black" cx="204.05071929388583" cy="98.14607319617494" r="0.5" />
<circle fill="none" stroke="black" cx="216.0504762681759" cy="97.05405937004413" r="0.5" />
<circle fill="none" stroke="black" cx="228.02497836327294" cy="95.71151630569983" r="0.5" />
<circle fill="none" stroke="black" cx="238" cy="94.37672282007884" r="0.5" />
</g>
<path fill="none" stroke="green" d="M 240.2215875321572,113.01231316209206 L 240,115 L 227.99832022233954,113.6620515098486 L 228.22103335167043,111.67449047631436 L 216.17810263026217,110.3254795004833 L 215.99705963516607,112.31726850384852 L 203.97045235689353,111.22411405886236 L 204.10025162188026,109.22833046568175 L 191.99318179428823,108.4417244057914 L 191.91975952326666,110.44037624393582 L 179.85168586971784,109.99704471535807 L 179.88692400130128,107.9973551709331 L 167.79821033456582,107.78437995103245 L 167.77706778135908,109.78426819602113 L 155.7012456450985,109.65660420646027 L 155.71141385154272,107.65663005473287 L 143.6256766445028,107.59520613589864 L 143.62489147116827,109.59520598177434 L 131.54837947643233,109.59046490381282 L 131.53831419377894,107.59049023145191 L 119.45185817330479,107.65134329107967 L 119.47202087699772,109.65124165484212 L 107.39613228644359,109.77298912355955 L 107.36392400779464,107.77324848367985 L 95.27138406069936,107.96809127468087 L 95.32120404648239,109.96747067064767 L 83.24848356518643,110.26829539853773 L 83.17723634777573,108.26956484290717 L 71.06565863499394,108.70175754381998 L 71.17976771935088,110.69849966960068 L 59.12334976591339,111.3874954069713 L 58.9376228207148,109.39613770383829 L 46.846207568449124,110.52502708002383 L 47.099653806403836,112.50890333737121 L 35.12100313156397,114.03921246732227 L 34.80877232393972,112.06373482311308 L 22.84116450201809,113.95566127493841 L 23.19290326116829,115.92448829763784 L 11.304722903120469,118.04835888630961 L 10.964477187302045,116.07751316610035 L -0.34024571581842394,118.02915427979073 L 0,120 L 0.47879989291044367,143.05815792028574 L 11.726010438257807,145.83138199494687 L 11.247210545347365,147.7732240746611 L 23.080024579253003,150.71836224393118 L 23.563078678950763,148.77757406982118 L 35.402206000685084,151.64119218662947 L 34.93200292969323,153.58513381950578 L 46.817387019210976,156.3098883799947 L 47.264298392108685,154.36046020107284 L 59.163971743144124,156.79992246038583 L 58.76223372167613,158.7591586794536 L 70.7454820463369,161.01538201325658 L 71.11554275568042,159.0499164013976 L 83.10016699990715,161.23548931588027 L 82.7413499204777,163.20303863000424 L 94.79344172447497,165.05217374619093 L 95.09674963152091,163.07530644828663 L 107.12919448000767,164.35221322031015 L 106.91778281052117,166.3410081081769 L 119.0942027374928,166.96721305153073 L 119.19692233667679,164.96985262237843 L 131.28562607944653,164.96157217351362 L 131.28655142888067,166.96157195944573 L 143.473356252364,166.56239436063208 L 143.40788156212426,164.56346638170487 L 155.53384985437685,163.87375186239655 L 155.64732963450655,165.8705298519341 L 167.8099464079924,165.00062692702585 L 167.66726552773247,163.00572287760184 L 179.79298617303954,161.9850875071491 L 179.96070937769164,163.97804233017473 L 192.0994860619659,162.82128550720503 L 191.9097568834189,160.83030513592865 L 203.99887721012576,159.49241529837457 L 204.21883420700576,161.48028323149373 L 216.2578417055445,159.55672314774492 L 215.94228955837562,157.58177331485876 L 227.73021077117562,154.9695389371139 L 228.16234923180068,156.92229502809113 L 239.99999999999994,154 L 239.52066107264645,152.05829090934725  Z"/>
<g>
<circle fill="none" stroke="black" cx="2" cy="122.59049023145191" r="0.5" />
<circle fill="none" stroke="black" cx="11.80634893746189" cy="120.5465901150337" r="0.5" />
<circle fill="none" stroke="black" cx="23.669202636182476" cy="118.43363532037053" r="0.5" />
<circle fill="none" stroke="black" cx="35.57260871493367" cy="116.56412050394171" r="0.5" />
<circle fill="none" stroke="black" cx="47.52685360690985" cy="115.05493430048273" r="0.5" />
<circle fill="none" stroke="black" cx="59.525140102032125" cy="113.9514923295466" r="0.5" />
<circle fill="none" stroke="black" cx="71.55513989477544" cy="113.27067613263071" r="0.5" />
<circle fill="none" stroke="black" cx="83.5973072118068" cy="112.84852680931631" r="0.5" />
<circle fill="none" stroke="black" cx="95.64325190723213" cy="112.55067448053273" r="0.5" />
<circle fill="none" stroke="black" cx="107.69139662440544" cy="112.35989535536002" r="0.5" />
<circle fill="none" stroke="black" cx="119.74045449347025" cy="112.23962316414607" r="0.5" />
<circle fill="none" stroke="black" cx="131.78997529772803" cy="112.1800000471194" r="0.5" />
<circle fill="none" stroke="black" cx="143.83964382960778" cy="112.18640230677954" r="0.5" />
<circle fill="none" stroke="black" cx="155.88915050293744" cy="112.24839075952717" r="0.5" />
<circle fill="none" stroke="black" cx="167.93811494002986" cy="112.37716504797632" r="0.5" />
<circle fill="none" stroke="black" cx="179.98588018167027" cy="112.59020888211468" r="0.5" />
<circle fill="none" stroke="black" cx="192.02700163378793" cy="113.03619614294452" r="0.5" />
<circle fill="none" stroke="black" cx="204.05071929388583" cy="113.8211398553558" r="0.5" />
<circle fill="none" stroke="black" cx="216.0504762681759" cy="114.91315368148662" r="0.5" />
<circle fill="none" stroke="black" cx="228.02497836327294" cy="116.2556967458309" r="0.5" />
<circle fill="none" stroke="black" cx="238" cy="117.59049023145191" r="0.5" />
<circle fill="none" stroke="black" cx="2" cy="139.96721305153073" r="0.5" />
<circle fill="none" stroke="black" cx="11.746773840835287" cy="142.86555795683248" r="0.5" />
<circle fill="none" stroke="black" cx="23.553725632174974" cy="145.80237829198677" r="0.5" />
<circle fill="none" stroke="black" cx="35.3806052377417" cy="148.65759833921302" r="0.5" />
<circle fill="none" stroke="black" cx="47.24101713508774" cy="151.36988076412482" r="0.5" />
<circle fill="none" stroke="black" cx="59.16132319640742" cy="153.80402551570418" r="0.5" />
<circle fill="none" stroke="black" cx="71.11835039001916" cy="156.05306533782516" r="0.5" />
<circle fill="none" stroke="black" cx="83.08841447682505" cy="158.23111150631252" r="0.5" />
<circle fill="none" stroke="black" cx="95.11635784867771" cy="160.0583584408531" r="0.5" />
<circle fill="none" stroke="black" cx="107.21529449077795" cy="161.32778698464855" r="0.5" />
<circle fill="none" stroke="black" cx="119.36507476300591" cy="161.94423079944318" r="0.5" />
<circle fill="none" stroke="black" cx="131.53044700755888" cy="161.9239009977341" r="0.5" />
<circle fill="none" stroke="black" cx="143.69002983160124" cy="161.52112547384573" r="0.5" />
<circle fill="none" stroke="black" cx="155.83665065429403" cy="160.82522225083784" r="0.5" />
<circle fill="none" stroke="black" cx="167.97210688084758" cy="159.95549558294596" r="0.5" />
<circle fill="none" stroke="black" cx="180.09566347933256" cy="158.93283213657966" r="0.5" />
<circle fill="none" stroke="black" cx="192.20738086983616" cy="157.77784228176375" r="0.5" />
<circle fill="none" stroke="black" cx="204.29953896253826" cy="156.43755429130582" r="0.5" />
<circle fill="none" stroke="black" cx="216.31096191527934" cy="154.51312163646475" r="0.5" />
<circle fill="none" stroke="black" cx="228.1886938882563" cy="151.88313336872645" r="0.5" />
<circle fill="none" stroke="black" cx="237.99999999999991" cy="148.96721305153076" r="0.5" />
</g>
<path fill="none" stroke="yellow" d="M 0,211.96721305153073 L 0,191.96721305153073 L 11.247210545347365,189.19398897686963 L 11.726010438257807,191.1358310565839 L 23.563078678950763,188.18963898170955 L 23.080024579253003,186.24885080759955 L 34.93200292969323,183.38207923202495 L 35.402206000685084,185.32602086490127 L 47.264298392108685,182.60675285045792 L 46.817387019210976,180.65732467153603 L 58.76223372167613,178.20805437207716 L 59.163971743144124,180.16729059114493 L 71.11554275568042,177.91729665013315 L 70.7454820463369,175.95183103827418 L 82.7413499204777,173.7641744215265 L 83.10016699990715,175.73172373565046 L 95.09674963152091,173.8919066032441 L 94.79344172447497,171.91503930533983 L 106.91778281052117,170.62620494335386 L 107.12919448000767,172.6149998312206 L 119.19692233667679,171.9973604291523 L 119.0942027374928,170 L 131.28655142888067,170.00564109208503 L 131.28562607944653,172.00564087801712 L 143.40788156212426,172.40374666982586 L 143.473356252364,170.40481869089865 L 155.64732963450655,171.09668319959664 L 155.53384985437685,173.09346118913422 L 167.66726552773247,173.9614901739289 L 167.8099464079924,171.96658612450491 L 179.96070937769164,172.989170721356 L 179.79298617303954,174.98212554438166 L 191.9097568834189,176.1369079156021 L 192.0994860619659,174.1459275443257 L 204.21883420700576,175.486929820037 L 203.99887721012576,177.4747977531562 L 215.94228955837562,179.38543973667197 L 216.2578417055445,177.41048990378582 L 228.16234923180068,180.0449180234396 L 227.73021077117562,181.99767411441684 L 239.52066107264645,184.90892214218348 L 239.99999999999994,182.96721305153073 L 240,211.96721305153073  Z"/>
<g>
<circle fill="none" stroke="black" cx="2" cy="197" r="0.5" />
<circle fill="none" stroke="black" cx="11.746773767641105" cy="194.10165479805684" r="0.5" />
<circle fill="none" stroke="black" cx="23.553725723431036" cy="191.16483512842262" r="0.5" />
<circle fill="none" stroke="black" cx="35.38060523507744" cy="188.3096147129428" r="0.5" />
<circle fill="none" stroke="black" cx="47.241017328503816" cy="185.597333171371" r="0.5" />
<circle fill="none" stroke="black" cx="59.161323198993465" cy="183.16318753532337" r="0.5" />
<circle fill="none" stroke="black" cx="71.11835063256538" cy="180.91414900554665" r="0.5" />
<circle fill="none" stroke="black" cx="83.08841459466159" cy="178.73610223518622" r="0.5" />
<circle fill="none" stroke="black" cx="95.1163578584594" cy="176.90885465094038" r="0.5" />
<circle fill="none" stroke="black" cx="107.21529456391048" cy="175.63942699778278" r="0.5" />
<circle fill="none" stroke="black" cx="119.36507477185876" cy="175.0229822517671" r="0.5" />
<circle fill="none" stroke="black" cx="131.53044701700418" cy="175.04331304768996" r="0.5" />
<circle fill="none" stroke="black" cx="143.6900299063683" cy="175.44608685693436" r="0.5" />
<circle fill="none" stroke="black" cx="155.83665068832863" cy="176.14199076615236" r="0.5" />
<circle fill="none" stroke="black" cx="167.9721068954277" cy="177.01171765454768" r="0.5" />
<circle fill="none" stroke="black" cx="180.09566357222573" cy="178.03438013088817" r="0.5" />
<circle fill="none" stroke="black" cx="192.2073808518343" cy="179.18937111505787" r="0.5" />
<circle fill="none" stroke="black" cx="204.29953902128221" cy="180.52965841398245" r="0.5" />
<circle fill="none" stroke="black" cx="216.31096201914227" cy="182.4540909708766" r="0.5" />
<circle fill="none" stroke="black" cx="228.18869389810638" cy="185.08407968518776" r="0.5" />
<circle fill="none" stroke="black" cx="238" cy="188" r="0.5" />
</g>
</svg>
